<svg xmlns="http://www.w3.org/2000/svg" width="188.959" height="163.336" viewBox="0 0 188.959 163.336">
  <g id="Icon" transform="translate(-411 -1046)">
    <path id="Path_53" data-name="Path 53" d="M85,0c47,15,130,67,85,85s-49,87-85,75S-28,109,0,85,38-15,85,0Z" transform="translate(417.006 1047.943)" fill="#ffe8f2"/>
    <g id="XMLID_864_" transform="translate(465.999 1088)">
      <g id="XMLID_3186_" transform="translate(1.546 1.543)">
        <path id="Path_54" data-name="Path 54" d="M25.55,34.075l1.5-2.518A13.325,13.325,0,0,1,38.5,25.044,13.326,13.326,0,0,0,51.826,11.718V10H30.585A20.568,20.568,0,0,0,10.017,30.568a21.308,21.308,0,0,0,7.948,16.6L19.378,48.3h.393A7.2,7.2,0,0,0,26.5,43.675Z" transform="translate(-10.017 -10)" fill="#ffa700"/>
      </g>
      <g id="XMLID_259_" transform="translate(10.907 14.568)">
        <path id="XMLID_3_" d="M102.79,113.584l-4.178-5.694.264-1.352A18.054,18.054,0,0,0,97,94.414l-.163.014a13.259,13.259,0,0,1-7.028,2.005,13.325,13.325,0,0,0-11.453,6.514l-1.5,2.518c-2.281,0-4.131,2.149-4.131,4.8s1.849,4.8,4.131,4.8a6.417,6.417,0,0,1-5.242,4.5l-.93.132v14.272l16.231.637v-8.4h8.122a5.169,5.169,0,0,0,5.169-5.169v-5.08h1.384A1.488,1.488,0,0,0,102.79,113.584Z" transform="translate(-70.685 -94.414)" fill="#ffd0c7"/>
      </g>
      <g id="XMLID_3184_" transform="translate(22.469 28.043)">
        <path id="XMLID_637_" d="M145.619,194.355l4.668,5.706h8.122a5.169,5.169,0,0,0,5.169-5.169v-5.08h1.384a1.488,1.488,0,0,0,1.2-2.368l-4.178-5.694H151.936Z" transform="translate(-145.619 -181.75)" fill="#fe0470"/>
      </g>
      <g id="XMLID_3182_" transform="translate(1.544 52.152)">
        <path id="XMLID_613_" d="M26.385,338A16.383,16.383,0,0,0,10,354.384V363.3H57.756A48.613,48.613,0,0,0,33.231,339.5l-.3-.129A16.383,16.383,0,0,0,26.385,338Z" transform="translate(-10.001 -338)" fill="#fe0470"/>
      </g>
      <g id="XMLID_2545_" transform="translate(63.375 13.89)">
        <ellipse id="XMLID_594_" cx="6" cy="5.5" rx="6" ry="5.5" transform="translate(-0.374 0.11)" fill="#ffa700"/>
      </g>
      <g id="XMLID_188_" transform="translate(0.001 0)">
        <g id="XMLID_244_" transform="translate(54.692 45.143)">
          <circle id="XMLID_160_" cx="5.5" cy="5.5" r="5.5" transform="translate(0.308 -0.143)" fill="#ffa700"/>
        </g>
        <g id="XMLID_660_" transform="translate(0 0)">
          <path id="XMLID_700_" d="M40.119,62.149a51.219,51.219,0,0,0-11.439-8.307V47.9h6.58a6.72,6.72,0,0,0,6.712-6.712V37.644a3.031,3.031,0,0,0,2.284-4.819l-3.778-5.149.135-.689a19.642,19.642,0,0,0-1.454-12A14.851,14.851,0,0,0,44.9,3.261V1.543A1.543,1.543,0,0,0,43.355,0H22.114A22.1,22.1,0,0,0,11.043,2.967a1.543,1.543,0,0,0,1.547,2.67,19.014,19.014,0,0,1,9.524-2.552h19.7v.175A11.8,11.8,0,0,1,30.029,15.044,14.936,14.936,0,0,0,17.25,22.312l-1.1,1.848a6.187,6.187,0,0,0-4.746,6.258,6.3,6.3,0,0,0,4.04,6.074,5.665,5.665,0,0,1-4,1.807l-.983-.791a19.675,19.675,0,0,1-7.372-15.4,18.943,18.943,0,0,1,1.27-6.849A1.543,1.543,0,1,0,1.48,14.15,22.016,22.016,0,0,0,0,22.111a22.746,22.746,0,0,0,8.523,17.8l.838.674v12.2A17.942,17.942,0,0,0,0,68.536v8.921a1.543,1.543,0,0,0,3.086,0V68.536a14.841,14.841,0,0,1,20.774-13.6A48.144,48.144,0,0,1,47.9,78.115,1.543,1.543,0,0,0,50.694,76.8,49.725,49.725,0,0,0,40.119,62.149ZM41.7,34.562H40.429a1.543,1.543,0,0,0-1.543,1.543v5.08a3.63,3.63,0,0,1-3.626,3.626H27.869L24.3,40.445l5.443-10.859h8.314ZM19.9,23.889A11.836,11.836,0,0,1,30.029,18.13a14.778,14.778,0,0,0,6.488-1.492A16.55,16.55,0,0,1,37.585,26.4l-.021.105H28.945l-9.433-1.954Zm-5.411,6.529c0-1.745,1.1-3.169,2.467-3.249l9.55,1.978-4.351,8.682-2.935-3.588a1.543,1.543,0,0,0-1.194-.566h-.948c-1.427,0-2.588-1.461-2.588-3.257Zm3.436,20.191a17.858,17.858,0,0,0-5.477.857V41.313a8.768,8.768,0,0,0,5.809-3.374L25.595,46.9v5.424c-.167-.075-.332-.152-.5-.225a17.825,17.825,0,0,0-7.168-1.5Z" transform="translate(-0.001 0)"/>
          <path id="XMLID_975_" d="M33.544,49.766a1.544,1.544,0,1,0-1.091-.452A1.555,1.555,0,0,0,33.544,49.766Z" transform="translate(-27.064 -39.477)"/>
          <path id="XMLID_978_" d="M398.825,70.641h-1.714a7.056,7.056,0,0,0-.94-2.262l1.214-1.214a1.543,1.543,0,1,0-2.182-2.182L393.989,66.2a7.055,7.055,0,0,0-2.262-.94V63.543a1.543,1.543,0,0,0-3.086,0v1.714a7.053,7.053,0,0,0-2.262.94l-1.214-1.214a1.543,1.543,0,1,0-2.182,2.182l1.214,1.214a7.053,7.053,0,0,0-.94,2.262h-1.714a1.543,1.543,0,0,0,0,3.086h1.714a7.058,7.058,0,0,0,.94,2.262L382.984,77.2a1.543,1.543,0,1,0,2.182,2.182l1.214-1.214a7.057,7.057,0,0,0,2.262.94v1.713a1.543,1.543,0,1,0,3.086,0V79.11a7.056,7.056,0,0,0,2.262-.94l1.214,1.214a1.543,1.543,0,1,0,2.182-2.182l-1.214-1.214a7.057,7.057,0,0,0,.94-2.262h1.714a1.543,1.543,0,1,0,0-3.086ZM390.185,76.2a4.012,4.012,0,1,1,4.012-4.012A4.016,4.016,0,0,1,390.185,76.2Z" transform="translate(-321.368 -52.434)"/>
          <path id="XMLID_981_" d="M342.825,270.641h-1.714a7.055,7.055,0,0,0-.94-2.262l1.214-1.214a1.543,1.543,0,1,0-2.182-2.182l-1.214,1.214a7.059,7.059,0,0,0-2.262-.94v-1.714a1.543,1.543,0,0,0-3.086,0v1.714a7.054,7.054,0,0,0-2.262.94l-1.214-1.214a1.543,1.543,0,0,0-2.182,2.182l1.214,1.214a7.053,7.053,0,0,0-.94,2.262h-1.714a1.543,1.543,0,0,0,0,3.086h1.714a7.057,7.057,0,0,0,.94,2.262l-1.214,1.214a1.543,1.543,0,1,0,2.182,2.182l1.214-1.214a7.058,7.058,0,0,0,2.262.94v1.714a1.543,1.543,0,0,0,3.086,0V279.11a7.053,7.053,0,0,0,2.262-.94l1.214,1.214a1.543,1.543,0,1,0,2.182-2.182l-1.214-1.214a7.057,7.057,0,0,0,.94-2.262h1.714a1.543,1.543,0,1,0,0-3.086Zm-8.641,5.555a4.012,4.012,0,1,1,4.012-4.012A4.016,4.016,0,0,1,334.185,276.2Z" transform="translate(-274.009 -221.574)"/>
        </g>
      </g>
    </g>
  </g>
</svg>
