<svg xmlns="http://www.w3.org/2000/svg" width="188.959" height="163.336" viewBox="0 0 188.959 163.336">
  <g id="Icon" transform="translate(-411 -1046)">
    <path id="Path_53" data-name="Path 53" d="M85,0c47,15,130,67,85,85s-49,87-85,75S-28,109,0,85,38-15,85,0Z" transform="translate(417.006 1047.943)" fill="#ffe8f2"/>
    <g id="avoid-crowds" transform="translate(441.657 1071)">
      <path id="Path_181" data-name="Path 181" d="M130.379,88H117.251A5.251,5.251,0,0,0,112,93.251v6.564h5.251v10.5h13.128v-10.5h5.251V93.251A5.251,5.251,0,0,0,130.379,88Z" transform="translate(-78.288 -60.185)" fill="#f78e00"/>
      <path id="Path_182" data-name="Path 182" d="M160,56v3.938a3.938,3.938,0,0,0,7.877,0V56Z" transform="translate(-118.411 -33.436)" fill="#ffceb6"/>
      <path id="Path_183" data-name="Path 183" d="M163.938,24a3.938,3.938,0,0,1,3.938,3.938v1.313H160V27.938A3.938,3.938,0,0,1,163.938,24Z" transform="translate(-118.411 -6.687)" fill="#b1712c"/>
      <path id="Path_184" data-name="Path 184" d="M274.379,88H261.251A5.251,5.251,0,0,0,256,93.251v6.564h5.251v10.5h13.128v-10.5h5.251V93.251A5.251,5.251,0,0,0,274.379,88Z" transform="translate(-198.657 -60.185)" fill="#f78e00"/>
      <path id="Path_185" data-name="Path 185" d="M304,56v3.938a3.938,3.938,0,1,0,7.877,0V56Z" transform="translate(-238.78 -33.436)" fill="#ffceb6"/>
      <path id="Path_186" data-name="Path 186" d="M307.938,24a3.938,3.938,0,0,1,3.938,3.938v1.313H304V27.938A3.938,3.938,0,0,1,307.938,24Z" transform="translate(-238.78 -6.687)" fill="#b1712c"/>
      <path id="Path_187" data-name="Path 187" d="M58.626,456H71.754l2.626,3.938v1.313H56v-1.313Z" transform="translate(-31.477 -367.795)" fill="#e0edff"/>
      <path id="Path_188" data-name="Path 188" d="M157.251,256v9.19a3.94,3.94,0,0,1-3.938,3.938H152V256Z" transform="translate(-111.723 -200.616)" fill="#ffceb6"/>
      <path id="Path_189" data-name="Path 189" d="M45.251,256v13.128H43.938A3.94,3.94,0,0,1,40,265.19V256Z" transform="translate(-18.103 -200.616)" fill="#ffceb6"/>
      <path id="Path_190" data-name="Path 190" d="M58.379,184H45.251A5.251,5.251,0,0,0,40,189.251v6.564h5.251v7.877H58.379v-7.877h5.251v-6.564A5.251,5.251,0,0,0,58.379,184Z" transform="translate(-18.103 -140.431)" fill="#ffb401"/>
      <path id="Path_191" data-name="Path 191" d="M88,152v3.938a3.938,3.938,0,0,0,7.877,0V152Z" transform="translate(-58.226 -113.682)" fill="#ffceb6"/>
      <path id="Path_192" data-name="Path 192" d="M72,304H85.128v24.944H72Z" transform="translate(-44.852 -240.739)" fill="#ffd0c7"/>
      <path id="Path_193" data-name="Path 193" d="M202.626,456h13.128l2.626,3.938v1.313H200v-1.313Z" transform="translate(-151.847 -367.795)" fill="#e0edff"/>
      <path id="Path_194" data-name="Path 194" d="M301.251,288v3.938a3.939,3.939,0,0,1-3.938,3.938H296V288Z" transform="translate(-232.093 -227.364)" fill="#ffceb6"/>
      <path id="Path_195" data-name="Path 195" d="M189.251,288v7.877h-1.313A3.939,3.939,0,0,1,184,291.938V288Z" transform="translate(-138.472 -227.364)" fill="#ffceb6"/>
      <path id="Path_196" data-name="Path 196" d="M202.379,184H189.251A5.251,5.251,0,0,0,184,189.251v11.815h5.251v2.626h13.128v-2.626h5.251V189.251A5.251,5.251,0,0,0,202.379,184Z" transform="translate(-138.472 -140.431)" fill="#fe0470"/>
      <path id="Path_197" data-name="Path 197" d="M239.877,125.251v-2.228a3.023,3.023,0,0,0-4.7-2.515L232,122.626v2.626Z" transform="translate(-178.595 -86.934)" fill="#b1712c"/>
      <path id="Path_198" data-name="Path 198" d="M232,152v3.938a3.938,3.938,0,0,0,7.877,0V152Z" transform="translate(-178.595 -113.682)" fill="#ffceb6"/>
      <path id="Path_199" data-name="Path 199" d="M216,304h13.128v24.944H216Z" transform="translate(-165.221 -240.739)" fill="#ffd0c7"/>
      <path id="Path_200" data-name="Path 200" d="M91.938,120a3.938,3.938,0,0,1,3.938,3.938v1.313H88v-1.313A3.938,3.938,0,0,1,91.938,120Z" transform="translate(-58.226 -86.934)" fill="#b1712c"/>
      <path id="Path_201" data-name="Path 201" d="M346.626,456h13.128l2.626,3.938v1.313H344v-1.313Z" transform="translate(-272.216 -367.795)" fill="#e0edff"/>
      <path id="Path_202" data-name="Path 202" d="M445.251,256v9.19a3.94,3.94,0,0,1-3.938,3.938H440V256Z" transform="translate(-352.462 -200.616)" fill="#ffceb6"/>
      <path id="Path_203" data-name="Path 203" d="M333.251,256v13.128h-1.313A3.94,3.94,0,0,1,328,265.19V256Z" transform="translate(-258.841 -200.616)" fill="#ffceb6"/>
      <path id="Path_204" data-name="Path 204" d="M346.379,184H333.251A5.251,5.251,0,0,0,328,189.251v6.564h5.251v7.877h13.128v-7.877h5.251v-6.564A5.251,5.251,0,0,0,346.379,184Z" transform="translate(-258.841 -140.431)" fill="#ffb401"/>
      <path id="Path_205" data-name="Path 205" d="M376,152v3.938a3.938,3.938,0,1,0,7.877,0V152Z" transform="translate(-298.965 -113.682)" fill="#ffceb6"/>
      <path id="Path_206" data-name="Path 206" d="M360,304h13.128v24.944H360Z" transform="translate(-285.59 -240.739)" fill="#ffd0c7"/>
      <path id="Path_207" data-name="Path 207" d="M379.938,120a3.938,3.938,0,0,1,3.938,3.938v1.313H376v-1.313A3.938,3.938,0,0,1,379.938,120Z" transform="translate(-298.965 -86.934)" fill="#b1712c"/>
      <path id="Path_208" data-name="Path 208" d="M94.487,16.384,67.524,43.346a6.525,6.525,0,0,0-3.617-1.09H62.594V36.09A4.342,4.342,0,0,0,58.867,31.8a3.944,3.944,0,0,1,3.727-2.669h2.019a5.246,5.246,0,0,0,9.09,0h2.019a3.935,3.935,0,0,1,1.968.526l1.315-2.273a6.564,6.564,0,0,0-3.283-.879H74.41V21.251a5.251,5.251,0,1,0-10.5,0V26.5H62.594a6.558,6.558,0,0,0-5.251,2.63,6.558,6.558,0,0,0-5.252-2.63H50.779V21.251a5.251,5.251,0,0,0-10.5,0V26.5H38.964a6.574,6.574,0,0,0-6.457,5.393A5.259,5.259,0,0,0,28.461,37v5.251H27.148a6.572,6.572,0,0,0-6.564,6.564V64.574a5.257,5.257,0,0,0,5.251,5.251v15.21l-7.492,7.492L20.2,94.384l12.2-12.2v4.707H29.774v2.626H32.4v2.626H25.836v2.626H42.9a1.313,1.313,0,0,0,1.313-1.313V92.143a1.312,1.312,0,0,0-.221-.728l-2.405-3.608V72.995l4.448-4.448a5.227,5.227,0,0,0,3.429,1.279V87.807l-2.405,3.608a1.313,1.313,0,0,0-.221.728v1.313a1.313,1.313,0,0,0,1.313,1.313H66.533a1.313,1.313,0,0,0,1.313-1.313V92.143a1.313,1.313,0,0,0-.221-.728L65.22,87.807V69.825a5.239,5.239,0,0,0,3.939-1.784A5.239,5.239,0,0,0,73.1,69.825V87.807l-2.405,3.608a1.313,1.313,0,0,0-.221.728v1.313a1.313,1.313,0,0,0,1.313,1.313H90.164a1.313,1.313,0,0,0,1.313-1.313V92.143a1.313,1.313,0,0,0-.221-.728l-2.405-3.608V69.825A5.257,5.257,0,0,0,94.1,64.574V48.82a6.572,6.572,0,0,0-6.564-6.564H86.225V37a5.26,5.26,0,0,0-3.646-5L96.343,18.241ZM69.159,29.128A2.629,2.629,0,0,1,66.533,26.5V23.877h5.251V26.5a2.629,2.629,0,0,1-2.626,2.626Zm0-10.5a2.629,2.629,0,0,1,2.626,2.626H66.533A2.629,2.629,0,0,1,69.159,18.625ZM62.594,86.892H58.656V69.825H56.03V86.892H52.092V64.574h10.5ZM41.589,56.7h2.626v7.877A2.629,2.629,0,0,1,41.589,67.2Zm5.251,7.333V61.948h2.082Zm5.8-2.082,9.959-9.959v9.959ZM64.451,50.133l3.01-3.01a3.915,3.915,0,0,1,.385,1.7v10.5H65.22v-9.19Zm11.272-7.877H74.41a6.524,6.524,0,0,0-2.636.555l3.949-3.949Zm2.626-2.626H83.6v2.626a2.626,2.626,0,1,1-5.251,0ZM63.907,44.882a3.915,3.915,0,0,1,1.7.385L52.092,58.779V50.133H49.466v9.19H46.841V48.82a3.943,3.943,0,0,1,3.938-3.938H52.8a5.246,5.246,0,0,0,9.09,0Zm-9.19-5.251h5.251v2.626a2.626,2.626,0,1,1-5.251,0Zm5.251-3.541V37H54.718v-.61l2.592-1.728a1.71,1.71,0,0,1,2.659,1.423ZM42.9,23.877h5.251V26.5a2.626,2.626,0,1,1-5.251,0Zm2.626-5.251a2.629,2.629,0,0,1,2.626,2.626H42.9A2.629,2.629,0,0,1,45.528,18.625Zm-6.564,10.5h2.019a5.246,5.246,0,0,0,9.09,0h2.019a3.944,3.944,0,0,1,3.882,3.28c-.04.025-.081.048-.121.074L52.676,34.6a1.313,1.313,0,0,0-.585,1.092v6.564H50.779a6.558,6.558,0,0,0-5.251,2.63,6.558,6.558,0,0,0-5.252-2.63H38.964V37a5.26,5.26,0,0,0-3.781-5.04,3.945,3.945,0,0,1,3.781-2.837Zm-7.877,10.5h5.251v2.626a2.626,2.626,0,0,1-5.251,0Zm2.626-5.251A2.629,2.629,0,0,1,36.338,37H31.087a2.629,2.629,0,0,1,2.626-2.626Zm-6.564,10.5h2.019a5.246,5.246,0,0,0,9.09,0h2.019a3.943,3.943,0,0,1,3.938,3.938v5.251H41.589V50.133H38.964V61.948h-10.5V50.133H25.836v3.938H23.21V48.82A3.943,3.943,0,0,1,27.148,44.882ZM23.21,64.574V56.7h2.626V67.2a2.629,2.629,0,0,1-2.626-2.626ZM28.461,82.41V64.574h10.5v7.333l-3.938,3.938v-6.02H32.4v8.646Zm6.564,9.734V89.518h4.549l1.75,2.626Zm3.938-5.251H35.025V79.559l3.938-3.938ZM47.9,66.68l1.562-1.562V67.2A2.608,2.608,0,0,1,47.9,66.68Zm3.577,22.838H56.03v2.626h-6.3Zm7.174,2.626V89.518H63.2l1.75,2.626ZM65.22,67.2V61.948h2.626v2.626A2.629,2.629,0,0,1,65.22,67.2Zm5.251-2.626V56.7H73.1V67.2a2.629,2.629,0,0,1-2.626-2.626ZM86.225,86.892H82.287V69.825H79.661V86.892H75.723V64.574h10.5ZM75.112,89.518h4.549v2.626h-6.3Zm7.174,2.626V89.518h4.549l1.75,2.626ZM88.851,67.2V56.7h2.626v7.877A2.629,2.629,0,0,1,88.851,67.2ZM87.538,44.882a3.943,3.943,0,0,1,3.938,3.938v5.251H88.851V50.133H86.225V61.948h-10.5V50.133H73.1v3.938H70.471V48.82a3.943,3.943,0,0,1,3.938-3.938h2.019a5.246,5.246,0,0,0,9.09,0Zm-6.564-10.5A2.629,2.629,0,0,1,83.6,37H78.348a2.6,2.6,0,0,1,.179-.948l1.5-1.5a2.6,2.6,0,0,1,.949-.18Z" transform="translate(0 0)"/>
    </g>
  </g>
</svg>
