<svg xmlns="http://www.w3.org/2000/svg" width="188.959" height="163.336" viewBox="0 0 188.959 163.336">
  <g id="Icon" transform="translate(-411 -1046)">
    <path id="Path_53" data-name="Path 53" d="M85,0c47,15,130,67,85,85s-49,87-85,75S-28,109,0,85,38-15,85,0Z" transform="translate(417.006 1047.943)" fill="#ffe8f2"/>
    <g id="shelves" transform="translate(462 1090.986)">
      <rect id="Rectangle_12" data-name="Rectangle 12" width="23.704" height="23.704" transform="translate(48.848 48.861)" fill="#ffd0c7"/>
      <rect id="Rectangle_13" data-name="Rectangle 13" width="23.704" height="23.704" transform="translate(25.15 48.861)" fill="#ffa700"/>
      <g id="Group_14" data-name="Group 14" transform="translate(1.452 1.17)">
        <rect id="Rectangle_14" data-name="Rectangle 14" width="23.704" height="23.704" transform="translate(0 47.692)" fill="#ffd0c7"/>
        <rect id="Rectangle_15" data-name="Rectangle 15" width="23.704" height="23.704" fill="#ffd0c7"/>
      </g>
      <rect id="Rectangle_16" data-name="Rectangle 16" width="23.704" height="23.704" transform="translate(1.452 25.161)" fill="#ffd0c7"/>
      <rect id="Rectangle_17" data-name="Rectangle 17" width="23.704" height="23.704" transform="translate(25.15 25.161)" fill="#ffd0c7"/>
      <rect id="Rectangle_18" data-name="Rectangle 18" width="11.562" height="8.96" transform="translate(7.515 39.902)" fill="#cb0476"/>
      <rect id="Rectangle_19" data-name="Rectangle 19" width="15.031" height="6.937" transform="translate(5.781 32.965)" fill="#ffb9b7"/>
      <path id="Path_109" data-name="Path 109" d="M416.009,170.174a20.286,20.286,0,0,0,.719-5.233,22.254,22.254,0,0,0-2.706-10.2,22.264,22.264,0,0,0-2.692,10.2,20.275,20.275,0,0,0,.725,5.229Z" transform="translate(-351.879 -132.365)" fill="#fe0470"/>
      <g id="Group_15" data-name="Group 15" transform="translate(51.744 27.46)">
        <path id="Path_110" data-name="Path 110" d="M437.832,200.257h5.107c.343-.412.676-.85.991-1.314a20.2,20.2,0,0,0,3.176-9.036,23.492,23.492,0,0,0-7.461,6.666" transform="translate(-426.295 -189.908)" fill="#fe0470"/>
        <path id="Path_111" data-name="Path 111" d="M365.492,196.492a22.648,22.648,0,0,0-7.485-6.586,20.2,20.2,0,0,0,3.176,9.036c.315.464.648.9.991,1.314h5.107" transform="translate(-358.007 -189.906)" fill="#fe0470"/>
      </g>
      <path id="Path_112" data-name="Path 112" d="M396.05,261.514H382.245l1.7,11.053h10.407Z" transform="translate(-326.998 -223.705)" fill="#fe0470"/>
      <path id="Path_113" data-name="Path 113" d="M251.836,399.337h-2.752a1.517,1.517,0,0,1-1.517-1.517V383.511a1.517,1.517,0,0,1,1.517-1.517h2.752a1.517,1.517,0,0,1,1.517,1.517V397.82A1.517,1.517,0,0,1,251.836,399.337Z" transform="translate(-211.786 -326.771)" fill="#fe0470"/>
      <path id="Path_114" data-name="Path 114" d="M211.581,426.561h-2.789a1.517,1.517,0,0,1-1.517-1.517v-9.709a1.517,1.517,0,0,1,1.517-1.517h2.789a1.517,1.517,0,0,1,1.517,1.517v9.709A1.517,1.517,0,0,1,211.581,426.561Z" transform="translate(-177.317 -353.996)" fill="#fe0470"/>
      <path id="Path_115" data-name="Path 115" d="M293.369,399.337h-4.248a1.517,1.517,0,0,1-1.517-1.517V383.511a1.517,1.517,0,0,1,1.517-1.517h4.248a1.517,1.517,0,0,1,1.517,1.517V397.82A1.517,1.517,0,0,1,293.369,399.337Z" transform="translate(-246.036 -326.771)" fill="#fe0470"/>
      <path id="Path_116" data-name="Path 116" d="M61.087,65.384V60.606a7.528,7.528,0,0,0-1.893-4.991h0A7.528,7.528,0,0,1,57.3,50.624V47.011h-5v3.613a7.528,7.528,0,0,1-1.893,4.991h0a7.528,7.528,0,0,0-1.893,4.991v4.777H61.087Z" transform="translate(-41.506 -40.204)" fill="#ffa700"/>
      <path id="Path_117" data-name="Path 117" d="M10.025,415.619V412.83a1.517,1.517,0,0,1,1.517-1.517h9.71a1.517,1.517,0,0,1,1.517,1.517v2.789a1.517,1.517,0,0,1-1.517,1.517H11.542A1.517,1.517,0,0,1,10.025,415.619Z" transform="translate(-8.576 -351.853)" fill="#cb0476"/>
      <path id="Path_118" data-name="Path 118" d="M10.025,457.369v-4.248a1.517,1.517,0,0,1,1.517-1.517H25.851a1.517,1.517,0,0,1,1.517,1.517v4.248a1.517,1.517,0,0,1-1.517,1.517H11.542A1.517,1.517,0,0,1,10.025,457.369Z" transform="translate(-8.576 -386.321)" fill="#fe0470"/>
      <path id="Path_119" data-name="Path 119" d="M72.552,47.417H69.037l1.443-9.388a1.443,1.443,0,0,0-.024-.552c.039-.056.079-.112.118-.169A21.564,21.564,0,0,0,74,27.55a1.445,1.445,0,0,0-2.12-1.367,25.744,25.744,0,0,0-5.692,4.36,23.892,23.892,0,0,0-2.8-8.9,1.445,1.445,0,0,0-1.244-.709h0a1.445,1.445,0,0,0-1.244.711,23.889,23.889,0,0,0-2.779,8.816A24.876,24.876,0,0,0,52.4,26.172a1.445,1.445,0,0,0-2.1,1.378,21.564,21.564,0,0,0,3.423,9.758c.038.057.079.113.118.169a1.443,1.443,0,0,0-.024.552l1.444,9.388H50.3V25.179a1.445,1.445,0,0,0-1.445-1.445H42.735a1.445,1.445,0,1,0,0,2.89h4.67V47.417H26.594V26.624h4a1.445,1.445,0,1,0,0-2.89h-4V1.459A1.445,1.445,0,0,0,25.149.014H1.445A1.445,1.445,0,0,0,0,1.459V72.566a1.445,1.445,0,0,0,1.445,1.445H72.552A1.445,1.445,0,0,0,74,72.566v-23.7A1.445,1.445,0,0,0,72.552,47.417ZM70.5,30.574a17.621,17.621,0,0,1-2.314,5.11q-.233.342-.491.68H65.935q.114-.618.192-1.229a1.448,1.448,0,0,0,.162-.2A19.836,19.836,0,0,1,70.5,30.574Zm-8.35-4.688a19.853,19.853,0,0,1,1.256,6.69,18.2,18.2,0,0,1-.412,3.787H61.313a18.192,18.192,0,0,1-.417-3.785A19.9,19.9,0,0,1,62.147,25.886Zm-4.114,8.971a1.449,1.449,0,0,0,.127.159q.082.67.208,1.347H56.606q-.258-.337-.491-.68a17.668,17.668,0,0,1-2.333-5.177A19.151,19.151,0,0,1,58.033,34.858Zm-1.1,4.4H67.368l-1.255,8.163H58.186ZM41.568,54.2a2.94,2.94,0,0,0-1.517-.423H37.3a2.966,2.966,0,0,0-2.962,2.962V58.38c-.024,0-.048,0-.072,0H31.475a2.966,2.966,0,0,0-2.962,2.962v9.71c0,.024,0,.048,0,.072H26.594V50.307H47.4v3.473c-.024,0-.047,0-.07,0H43.085A2.941,2.941,0,0,0,41.568,54.2ZM17.275,63.838H15.634c0-.024,0-.048,0-.072V60.977a2.966,2.966,0,0,0-2.962-2.962H2.966c-.026,0-.05,0-.076,0V50.307H23.7V71.12H20.234c0-.024,0-.048,0-.072V66.8A2.966,2.966,0,0,0,17.275,63.838Zm-.668-47.469A6.078,6.078,0,0,1,18.136,20.4v3.332H8.457V20.4a6.079,6.079,0,0,1,1.529-4.033,8.966,8.966,0,0,0,2.256-5.95V8.252h2.109v2.168A8.967,8.967,0,0,0,16.607,16.369ZM23.7,26.644V47.417H20.523V41.348h.289A1.445,1.445,0,0,0,22.257,39.9V32.966a1.445,1.445,0,0,0-1.445-1.445H5.782a1.445,1.445,0,0,0-1.445,1.445V39.9a1.445,1.445,0,0,0,1.445,1.445h.289v6.069H2.891V26.644ZM7.227,38.458V34.411h12.14v4.047H7.227Zm1.734,2.891h8.672v6.069H8.961ZM2.894,63.766V60.977a.072.072,0,0,1,.072-.072h9.709a.072.072,0,0,1,.072.072v2.789a.072.072,0,0,1-.072.072H2.966A.072.072,0,0,1,2.894,63.766ZM23.7,2.9V23.734H21.027V20.4a8.966,8.966,0,0,0-2.256-5.95,6.077,6.077,0,0,1-1.529-4.033V6.807A1.445,1.445,0,0,0,15.8,5.361h-5A1.445,1.445,0,0,0,9.352,6.807v3.613a6.078,6.078,0,0,1-1.529,4.033A8.967,8.967,0,0,0,5.567,20.4v3.332H2.891V2.9ZM2.966,71.12a.072.072,0,0,1-.072-.072V66.8a.072.072,0,0,1,.072-.072H17.275a.072.072,0,0,1,.072.072v4.248a.072.072,0,0,1-.072.072Zm28.509,0a.072.072,0,0,1-.072-.072v-9.71a.072.072,0,0,1,.072-.072h2.789a.072.072,0,0,1,.072.072v9.71a.072.072,0,0,1-.072.072H31.475Zm5.823,0a.072.072,0,0,1-.072-.072V56.74a.072.072,0,0,1,.072-.072h2.752a.072.072,0,0,1,.072.072V71.048a.072.072,0,0,1-.072.072Zm5.787,0a.072.072,0,0,1-.072-.072V56.74a.072.072,0,0,1,.072-.072h4.248a.071.071,0,0,1,.07.064V71.056a.071.071,0,0,1-.07.064Zm28.021,0h-13V61.437a1.445,1.445,0,0,0-2.891,0V71.12H50.3V50.307H71.107V71.12Z" transform="translate(0 0)"/>
      <path id="Path_120" data-name="Path 120" d="M247.458,167.015a1.448,1.448,0,1,0-1.022-.425A1.452,1.452,0,0,0,247.458,167.015Z" transform="translate(-210.456 -140.39)"/>
      <path id="Path_121" data-name="Path 121" d="M383.451,374.242a1.446,1.446,0,1,0,1.022.423A1.456,1.456,0,0,0,383.451,374.242Z" transform="translate(-326.794 -320.14)"/>
    </g>
  </g>
</svg>
