<svg xmlns="http://www.w3.org/2000/svg" width="188.959" height="163.336" viewBox="0 0 188.959 163.336">
  <g id="Icon" transform="translate(-411 -1046)">
    <path id="Path_53" data-name="Path 53" d="M85,0c47,15,130,67,85,85s-49,87-85,75S-28,109,0,85,38-15,85,0Z" transform="translate(417.006 1047.943)" fill="#ffe8f2"/>
    <g id="handshake" transform="translate(465 1068.726)">
      <g id="Group_6" data-name="Group 6" transform="translate(1.171 35.993)">
        <path id="Path_55" data-name="Path 55" d="M303.2,115.685l-3.806-3.4a8.522,8.522,0,0,0-5.68-2.168h-6.759v11.772h-3.684v18.7h30.331V115.685Z" transform="translate(-240.206 -110.116)" fill="#ffd0c7"/>
        <path id="Path_56" data-name="Path 56" d="M300.444,201.589c.019-.209.031-.419.031-.631a7.082,7.082,0,0,0-1.327-4.14L286.51,182.4l-1.028.483h-2.205v18.7h17.168Z" transform="translate(-240.207 -171.113)" fill="#ffd0c7"/>
        <g id="Group_3" data-name="Group 3" transform="translate(4.206 1.373)">
          <g id="XMLID_99_">
            <g id="Group_2" data-name="Group 2">
              <path id="Path_57" data-name="Path 57" d="M79.107,148.326a4.007,4.007,0,0,1-6.537,4.637l-.44-.615a4.007,4.007,0,0,1-6.519,4.66l-.248-.347a4.007,4.007,0,1,1-6.516,4.665L49.6,148.254a.579.579,0,0,0-.473-.245l-14.705.025V122.792h11.1l1.207-1.246a8.683,8.683,0,0,1,6.234-2.639H65.789l9.706,10.4,11.121,15.742a4.007,4.007,0,1,1-6.516,4.665Z" transform="translate(-34.426 -118.906)" fill="#fed2a4"/>
            </g>
          </g>
        </g>
        <g id="Group_5" data-name="Group 5" transform="translate(0 2.989)">
          <g id="XMLID_96_">
            <g id="Group_4" data-name="Group 4">
              <path id="Path_58" data-name="Path 58" d="M438.912,130.471v27.622a1.215,1.215,0,0,1-1.215,1.215h-9.449a1.523,1.523,0,0,1-1.523-1.523V130.779a1.523,1.523,0,0,1,1.523-1.523H437.7A1.215,1.215,0,0,1,438.912,130.471Z" transform="translate(-361.254 -129.256)" fill="#ffa700"/>
              <path id="Path_59" data-name="Path 59" d="M61.37,178.645a4,4,0,0,0,4.611,1.438,4.006,4.006,0,0,1-7.135,1.323L49.6,168.334a.579.579,0,0,0-.473-.245l-14.705.025V142.871h11.1l.164-.169v19.784a2.847,2.847,0,0,0,2.852,2.847l2.24,0a2.376,2.376,0,0,1,1.942,1.009Z" transform="translate(-30.219 -140.602)" fill="#ffbd86"/>
              <path id="Path_60" data-name="Path 60" d="M19.838,130.779v27.005a1.523,1.523,0,0,1-1.523,1.523H8.366a.87.87,0,0,1-.87-.87V130.126a.87.87,0,0,1,.87-.87h9.95A1.523,1.523,0,0,1,19.838,130.779Z" transform="translate(-7.496 -129.256)" fill="#fe0470"/>
              <path id="Path_61" data-name="Path 61" d="M18.316,277.475H8.366a.87.87,0,0,1-.87-.87v5.618a.87.87,0,0,0,.87.87h9.95a1.523,1.523,0,0,0,1.523-1.523v-5.618A1.523,1.523,0,0,1,18.316,277.475Z" transform="translate(-7.496 -253.042)" fill="#cb0476"/>
            </g>
          </g>
        </g>
        <path id="Path_62" data-name="Path 62" d="M172.29,129.306l-9.706-10.4h-4.11l-7.737,9.047a6.659,6.659,0,0,0,9.228,9.523l6.287-5.047H174.5Z" transform="translate(-127.016 -117.533)" fill="#ffbd86"/>
        <path id="Path_63" data-name="Path 63" d="M190.646,110.116h-8.2a3.925,3.925,0,0,0-2.981,1.373l-9.475,11.079a3.536,3.536,0,0,0,4.9,5.055l6.758-5.425a1.407,1.407,0,0,1,.88-.31h8.121V110.116Z" transform="translate(-143.892 -110.116)" fill="#ffd0c7"/>
      </g>
      <g id="Group_7" data-name="Group 7" transform="translate(0 22.274)">
        <path id="Path_64" data-name="Path 64" d="M1.171,107.949h10.82a.352.352,0,0,1,.351.352v17.311a1.171,1.171,0,1,0,2.343,0V110.218h1.787a1.172,1.172,0,0,0,.841-.356l1.207-1.246a7.55,7.55,0,0,1,5.393-2.284H34.2l-7.823,9.145a4.708,4.708,0,0,0,6.525,6.731l6.821-5.477h6.12l6.241,8.835a1.171,1.171,0,0,0,1.913-1.352l-5.423-7.677a1.171,1.171,0,0,0-.645-2.149H39.308a1.172,1.172,0,0,0-.733.258l-7.142,5.735A2.365,2.365,0,0,1,28.153,117l9.476-11.078a2.748,2.748,0,0,1,2.091-.963H49.885a1.171,1.171,0,1,0,0-2.343H39.721a5.087,5.087,0,0,0-3.479,1.373H23.914a9.906,9.906,0,0,0-7.075,3l-.862.89H14.648a2.7,2.7,0,0,0-2.657-2.269H1.171a1.171,1.171,0,1,0,0,2.343Z" transform="translate(0 -90.07)"/>
        <path id="Path_65" data-name="Path 65" d="M78.829,135.68H68.165a.352.352,0,0,1-.352-.351v-27a.352.352,0,0,1,.352-.352H78.829a1.171,1.171,0,1,0,0-2.343H68.165a2.7,2.7,0,0,0-2.688,2.58h-.86l-3.473-3.1a9.7,9.7,0,0,0-6.241-2.461,1.171,1.171,0,0,0-.053,2.342,7.358,7.358,0,0,1,4.733,1.866l3.806,3.4a1.17,1.17,0,0,0,.78.3h1.3v22.563H59.459a5.132,5.132,0,0,0-.936-2.466l-1.65-2.335a1.171,1.171,0,1,0-1.913,1.352l1.654,2.341a2.836,2.836,0,0,1-4.611,3.3L48.772,130.8a1.171,1.171,0,1,0-1.9,1.364l2.216,3.1a2.836,2.836,0,0,1-4.611,3.3l-2.216-3.1a1.171,1.171,0,1,0-1.9,1.364l1.773,2.477a2.836,2.836,0,0,1-4.611,3.3l-1.773-2.477a1.171,1.171,0,1,0-1.9,1.364l1.525,2.13a2.836,2.836,0,0,1-4.607,3.307l-9.243-13.073a1.752,1.752,0,0,0-1.429-.74h-5.4v-2.489a1.171,1.171,0,0,0-2.343,0v4.7a.352.352,0,0,1-.351.351H1.171a1.171,1.171,0,0,0,0,2.343h10.82a2.7,2.7,0,0,0,2.687-2.564h5.1l9.07,12.828a5.178,5.178,0,0,0,9.319-2.169q.021-.125.035-.249a5.206,5.206,0,0,0,1.628.262,5.166,5.166,0,0,0,5.106-4.383,5.257,5.257,0,0,0,1.857.34,5.173,5.173,0,0,0,5-3.9,5.183,5.183,0,0,0,1.671.58,5.245,5.245,0,0,0,.857.071,5.184,5.184,0,0,0,4.845-3.38h6.313a2.7,2.7,0,0,0,2.688,2.564H78.828a1.171,1.171,0,0,0,0-2.342Z" transform="translate(0 -90.093)"/>
        <path id="Path_66" data-name="Path 66" d="M249.8,28.685a1.171,1.171,0,0,0,1.171-1.171V23.445a1.171,1.171,0,0,0-2.343,0v4.068A1.171,1.171,0,0,0,249.8,28.685Z" transform="translate(-209.797 -22.274)"/>
        <path id="Path_67" data-name="Path 67" d="M326.95,46.377a1.171,1.171,0,0,0,1.541-.606l1.624-3.73a1.171,1.171,0,1,0-2.148-.935l-1.624,3.73A1.171,1.171,0,0,0,326.95,46.377Z" transform="translate(-275.295 -37.57)"/>
        <path id="Path_68" data-name="Path 68" d="M162.322,45.77a1.171,1.171,0,0,0,2.148-.935l-1.625-3.73a1.171,1.171,0,0,0-2.148.935Z" transform="translate(-135.518 -37.569)"/>
        <path id="Path_69" data-name="Path 69" d="M249.8,448.926a1.171,1.171,0,0,0-1.171,1.171v4.068a1.171,1.171,0,0,0,2.343,0V450.1A1.171,1.171,0,0,0,249.8,448.926Z" transform="translate(-209.797 -382.294)"/>
        <path id="Path_70" data-name="Path 70" d="M328.492,433.667a1.171,1.171,0,1,0-2.148.935l1.624,3.73a1.171,1.171,0,1,0,2.148-.935Z" transform="translate(-275.295 -368.825)"/>
        <path id="Path_71" data-name="Path 71" d="M163.864,433.061a1.171,1.171,0,0,0-1.542.606L160.7,437.4a1.171,1.171,0,1,0,2.148.935l1.625-3.73a1.171,1.171,0,0,0-.606-1.542Z" transform="translate(-135.519 -368.825)"/>
      </g>
    </g>
  </g>
</svg>
