<svg xmlns="http://www.w3.org/2000/svg" width="188.959" height="163.336" viewBox="0 0 188.959 163.336">
  <g id="Icon" transform="translate(-411 -1046)">
    <path id="Path_53" data-name="Path 53" d="M85,0c47,15,130,67,85,85s-49,87-85,75S-28,109,0,85,38-15,85,0Z" transform="translate(417.006 1047.943)" fill="#ffe8f2"/>
    <g id="infected_1_" data-name="infected (1)" transform="translate(456 1088.997)">
      <g id="Group_18" data-name="Group 18" transform="translate(1.172 1.174)">
        <path id="Path_122" data-name="Path 122" d="M70.086,298.161a20.879,20.879,0,0,0-14.008-10.666l-5.261-1.152a13.871,13.871,0,0,1-12.979,0l-5.261,1.152a20.879,20.879,0,0,0-14.008,10.666L8,318.226H18.828l5.584-10.178v10.178H64.243V308.048l5.584,10.178H80.655Z" transform="translate(-8 -245.571)" fill="#ffd0c7"/>
        <g id="Group_16" data-name="Group 16" transform="translate(0 70.018)">
          <path id="Path_123" data-name="Path 123" d="M9.389,486,8,488.637H18.828L20.274,486Z" transform="translate(-8 -486)" fill="#f7c4a8"/>
          <path id="Path_124" data-name="Path 124" d="M120.037,486h39.832v2.637H120.037Z" transform="translate(-103.626 -486)" fill="#f7c4a8"/>
          <path id="Path_125" data-name="Path 125" d="M420.206,486l1.447,2.637H432.48L431.091,486Z" transform="translate(-359.825 -486)" fill="#f7c4a8"/>
        </g>
        <path id="Path_126" data-name="Path 126" d="M108.64,31.65a24.783,24.783,0,0,1-4.154-13.974,10.652,10.652,0,0,0,4.55,0c4.181-1.127,8.3-9.423,15.543-9.664s8.654,3.141,8.654,3.141a11.015,11.015,0,0,1,6.648-1.047c5.96.805,11.194,9.885,5.874,22.357" transform="translate(-90.35 -8)" fill="#ffa700"/>
        <path id="Path_127" data-name="Path 127" d="M187.732,85.831a52.845,52.845,0,0,1-6.624-8.24.733.733,0,0,0-1.151-.081,31.331,31.331,0,0,1-16.78,9.16,2.195,2.195,0,0,0-1.772,2.156v6.824a13.857,13.857,0,1,0,27.713,0V89.034A4.352,4.352,0,0,0,187.732,85.831Z" transform="translate(-138.933 -67.122)" fill="#fdd4bb"/>
        <path id="Path_128" data-name="Path 128" d="M175.261,198.607A13.857,13.857,0,0,1,161.4,184.75v2.637a13.857,13.857,0,0,0,27.713,0V184.75A13.857,13.857,0,0,1,175.261,198.607Z" transform="translate(-138.933 -158.859)" fill="#f7c4a8"/>
        <path id="Path_129" data-name="Path 129" d="M124.162,171.137v-4.894a4.316,4.316,0,1,0,.232,7.429A13.926,13.926,0,0,1,124.162,171.137Z" transform="translate(-101.692 -142.609)" fill="#ebbaa1"/>
        <path id="Path_130" data-name="Path 130" d="M349.243,171.137v-4.894a4.316,4.316,0,1,1-.232,7.429A13.938,13.938,0,0,0,349.243,171.137Z" transform="translate(-299.059 -142.609)" fill="#ebbaa1"/>
        <path id="Path_131" data-name="Path 131" d="M122.086,189.168a4.316,4.316,0,0,1-4.109-3,4.315,4.315,0,0,0,6.418,4.964,13.939,13.939,0,0,1-.231-2.5A4.29,4.29,0,0,1,122.086,189.168Z" transform="translate(-101.692 -160.072)" fill="#e8a990"/>
        <path id="Path_132" data-name="Path 132" d="M351.319,189.168a4.29,4.29,0,0,1-2.077-.534,13.928,13.928,0,0,1-.231,2.5,4.316,4.316,0,0,0,6.418-4.964A4.317,4.317,0,0,1,351.319,189.168Z" transform="translate(-299.059 -160.072)" fill="#e8a990"/>
        <path id="Path_133" data-name="Path 133" d="M166.974,345.328v12.46a1.368,1.368,0,0,1-.953,1.3l-7.6,2.424a1.368,1.368,0,0,1-1.784-1.322c.054-4.231,1-14.286,8.649-16.2a1.367,1.367,0,0,1,1.69,1.331Z" transform="translate(-134.863 -294.745)" fill="#fe0470"/>
        <path id="Path_134" data-name="Path 134" d="M284.784,345.328v12.46a1.368,1.368,0,0,0,.953,1.3l7.6,2.424a1.368,1.368,0,0,0,1.784-1.322c-.054-4.231-1-14.286-8.649-16.2A1.367,1.367,0,0,0,284.784,345.328Z" transform="translate(-244.24 -294.745)" fill="#fe0470"/>
        <g id="Group_17" data-name="Group 17" transform="translate(21.772 60.406)">
          <path id="Path_135" data-name="Path 135" d="M166.022,421.685l-7.6,2.424a1.368,1.368,0,0,1-1.69-.805c-.061.8-.087,1.518-.094,2.12a1.368,1.368,0,0,0,1.784,1.322l7.6-2.424a1.368,1.368,0,0,0,.953-1.3v-2.637A1.369,1.369,0,0,1,166.022,421.685Z" transform="translate(-156.636 -420.381)" fill="#e84642"/>
          <path id="Path_136" data-name="Path 136" d="M293.337,424.109l-7.6-2.424a1.368,1.368,0,0,1-.953-1.3v2.637a1.368,1.368,0,0,0,.953,1.3l7.6,2.424a1.368,1.368,0,0,0,1.784-1.322c-.008-.6-.034-1.322-.094-2.12A1.368,1.368,0,0,1,293.337,424.109Z" transform="translate(-266.012 -420.381)" fill="#e84642"/>
        </g>
      </g>
      <g id="Group_19" data-name="Group 19" transform="translate(0 0.002)">
        <path id="Path_137" data-name="Path 137" d="M228.091,219.391a1.1,1.1,0,0,0,1.1-1.1,2.046,2.046,0,1,1,4.092,0,1.1,1.1,0,1,0,2.2,0,4.25,4.25,0,0,0-8.5,0A1.1,1.1,0,0,0,228.091,219.391Z" transform="translate(-193.739 -182.687)"/>
        <path id="Path_138" data-name="Path 138" d="M196.049,166.89a1.1,1.1,0,0,0,1.5.42l2.84-1.6a1.1,1.1,0,0,0-.035-1.939l-2.84-1.465a1.1,1.1,0,0,0-1.01,1.958l1.024.528-1.059.6A1.1,1.1,0,0,0,196.049,166.89Z" transform="translate(-167.21 -138.428)"/>
        <path id="Path_139" data-name="Path 139" d="M282.221,165.712l2.84,1.6a1.1,1.1,0,1,0,1.081-1.92l-1.059-.6,1.024-.528a1.1,1.1,0,0,0-1.01-1.958l-2.84,1.465a1.1,1.1,0,0,0-.035,1.939Z" transform="translate(-240.402 -138.428)"/>
        <path id="Path_140" data-name="Path 140" d="M169.45,341.313l7.616,2.429a2.473,2.473,0,0,0,3.224-2.389c-.058-4.5-1.1-15.183-9.5-17.282a2.471,2.471,0,0,0-3.062,2.4v1.714a8.777,8.777,0,0,0-2.021-.507v-4.745a1.1,1.1,0,1,0-2.2,0v4.745a8.785,8.785,0,0,0-2.021.507v-1.714a2.471,2.471,0,0,0-3.062-2.4c-8.4,2.1-9.443,12.785-9.5,17.282a2.474,2.474,0,0,0,3.224,2.389l7.616-2.429a2.465,2.465,0,0,0,1.722-2.356v-8.352a6.562,6.562,0,0,1,6.245,0v8.352A2.465,2.465,0,0,0,169.45,341.313Zm.482-14.84a.271.271,0,0,1,.106-.217.252.252,0,0,1,.156-.056.263.263,0,0,1,.062.008c6.915,1.727,7.78,11.186,7.831,15.173a.269.269,0,0,1-.351.261l-7.616-2.429a.268.268,0,0,1-.188-.257V326.474ZM159.28,338.958a.268.268,0,0,1-.187.257l-7.616,2.429a.269.269,0,0,1-.351-.261c.051-3.986.916-13.445,7.831-15.173a.26.26,0,0,1,.062-.008.252.252,0,0,1,.156.056.271.271,0,0,1,.106.217v12.484Z" transform="translate(-127.107 -274.692)"/>
        <path id="Path_141" data-name="Path 141" d="M253.026,403.079l-8.539-16.212a1.1,1.1,0,1,0-1.95,1.027l7.689,14.6h-8.371l-5.281-9.626a1.1,1.1,0,0,0-2.068.53v9.1H209.831a1.1,1.1,0,0,0,0,2.2h25.777a1.1,1.1,0,0,0,1.1-1.1v-5.9l3.527,6.428a1.1,1.1,0,0,0,.966.572h10.849a1.1,1.1,0,0,0,.975-1.615Z" transform="translate(-178.154 -329.696)"/>
        <path id="Path_142" data-name="Path 142" d="M27.274,72.8H18.647V63.7a1.1,1.1,0,0,0-2.068-.53L11.3,72.8H2.928l9.738-18.489a19.777,19.777,0,0,1,13.3-10.123l4.892-1.071a14.957,14.957,0,0,0,13.291,0l4.892,1.071a19.777,19.777,0,0,1,13.3,10.123,1.1,1.1,0,0,0,1.95-1.027A21.975,21.975,0,0,0,49.509,42.032l-2.724-.6a15.026,15.026,0,0,0,5.133-7.662,5.421,5.421,0,0,0,5.963-8.342c2.717-6.745,2.73-13.307.014-18.087a9.847,9.847,0,0,0-7.019-5.222,12.75,12.75,0,0,0-6.43.748,6.44,6.44,0,0,0-1.39-1.2A13.738,13.738,0,0,0,27.41,3.353a1.1,1.1,0,1,0,1.376,1.721,11.164,11.164,0,0,1,6.648-2.856c6.073-.2,7.522,2.3,7.621,2.481a1.051,1.051,0,0,0,.648.623,1.092,1.092,0,0,0,.923-.109,10.1,10.1,0,0,1,5.955-.907,7.683,7.683,0,0,1,5.4,4.126c1.1,1.942,3.223,7.205.152,15.421a5.393,5.393,0,0,0-3.647-.614v-.18a5.474,5.474,0,0,0-1.743-4.019h0a52.051,52.051,0,0,1-6.469-8.06,1.836,1.836,0,0,0-2.881-.212,30.5,30.5,0,0,1-16.211,8.84,3.307,3.307,0,0,0-2.666,3.241v.39a5.388,5.388,0,0,0-2.674.183,24.4,24.4,0,0,1-3.456-11.333,10.606,10.606,0,0,0,3.726-.225c1.926-.519,3.731-2.241,5.477-3.905a1.1,1.1,0,0,0-1.521-1.595c-1.546,1.474-3.145,3-4.53,3.373a9.614,9.614,0,0,1-4.017-.008,1.1,1.1,0,0,0-1.357,1.056,26.171,26.171,0,0,0,3.764,13.745,5.423,5.423,0,0,0,5.154,9.246,15.026,15.026,0,0,0,5.133,7.662l-2.724.6A21.976,21.976,0,0,0,10.716,53.281L.127,73.385A1.1,1.1,0,0,0,1.1,75H11.951a1.1,1.1,0,0,0,.966-.572L16.443,68v5.9a1.1,1.1,0,0,0,1.1,1.1h9.729a1.1,1.1,0,1,0,0-2.2ZM52.485,29.686V25.5a3.222,3.222,0,1,1-.122,6.1,15.033,15.033,0,0,0,.122-1.916ZM21.536,31.8a3.222,3.222,0,1,1,.978-6.291v4.182a15.06,15.06,0,0,0,.122,1.916,3.214,3.214,0,0,1-1.1.194Zm3.182-2.11V22.849a1.1,1.1,0,0,1,.885-1.078,32.872,32.872,0,0,0,17.1-9.178,52.462,52.462,0,0,0,6.545,8.067h0a3.264,3.264,0,0,1,1.033,2.4v6.628a12.782,12.782,0,0,1-25.563,0Z" transform="translate(0 -0.002)"/>
      </g>
    </g>
  </g>
</svg>
