<svg xmlns="http://www.w3.org/2000/svg" width="226.1" height="44.1" viewBox="0 0 226.1 44.1">
  <g id="Logo" transform="translate(-208.9 -47)">
    <g id="medical-mask_1_" data-name="medical-mask (1)" transform="translate(209 -3.906)">
      <path id="Path_1" data-name="Path 1" d="M43.49,63.086s-2.775-.022-3.016-.022a15.762,15.762,0,0,1-10.4-4.024,8.54,8.54,0,0,0-11.293,0,15.762,15.762,0,0,1-10.4,4.024c-.241,0-3.016.022-3.016.022A5.378,5.378,0,0,0,0,68.458v5.978A11.36,11.36,0,0,0,8.6,85.429a17.955,17.955,0,0,0,31.656,0,11.36,11.36,0,0,0,8.6-10.993V68.458A5.378,5.378,0,0,0,43.49,63.086Zm-22.812-1.9a5.677,5.677,0,0,1,7.506,0A18.694,18.694,0,0,0,39.53,65.9v2.26h-.345a19.422,19.422,0,0,1-12.6-4.574,5.6,5.6,0,0,0-.691-.548,2.782,2.782,0,0,0-.921-.356,2.833,2.833,0,0,0-1.881.288,4.859,4.859,0,0,0-.809.616,19.422,19.422,0,0,1-12.6,4.574H9.332V65.9A18.7,18.7,0,0,0,20.678,61.186ZM2.863,74.436V68.458a2.512,2.512,0,0,1,2.509-2.509h1.1v11a17.918,17.918,0,0,0,.663,4.839,8.5,8.5,0,0,1-4.269-7.347ZM24.431,92.043a15.116,15.116,0,0,1-15.1-15.1v-5.92h.345a22.287,22.287,0,0,0,14.459-5.258c.062-.052.125-.1.181-.162.028-.028.073-.1.118-.1s.083.069.107.093c.058.058.121.111.184.165a22.288,22.288,0,0,0,14.46,5.258h.345v5.92A15.116,15.116,0,0,1,24.431,92.043ZM46,74.436a8.5,8.5,0,0,1-4.269,7.347,17.917,17.917,0,0,0,.663-4.839v-11h1.1A2.512,2.512,0,0,1,46,68.458v5.978Z" transform="translate(0 0)" fill="#ff9c00" stroke="#ff9c00" stroke-width="0.2"/>
      <path id="Path_2" data-name="Path 2" d="M163.56,312.076a30.01,30.01,0,0,1-19.249,0,1.544,1.544,0,0,0-1.092,2.889,33.066,33.066,0,0,0,21.434,0,1.544,1.544,0,1,0-1.092-2.889Z" transform="translate(-129.505 -230.981)" fill="#ff9c00" stroke="#ff9c00" stroke-width="0.2"/>
      <path id="Path_3" data-name="Path 3" d="M149.781,242.054a32.447,32.447,0,0,1-20.171,0,1.37,1.37,0,0,0-1.761.983,1.586,1.586,0,0,0,.887,1.951,34.947,34.947,0,0,0,21.918,0,1.586,1.586,0,0,0,.887-1.951A1.369,1.369,0,0,0,149.781,242.054Z" transform="translate(-115.265 -167.592)" fill="#ff9c00" stroke="#ff9c00" stroke-width="0.2"/>
    </g>
    <text id="CovidZone" transform="translate(268 83)" fill="#ff9c00" font-size="33" font-family="SegoeUI-Bold, Segoe UI" font-weight="700"><tspan x="0" y="0">Covid</tspan><tspan y="0" fill="#fefefe">Zone</tspan></text>
  </g>
</svg>
