<svg xmlns="http://www.w3.org/2000/svg" width="188.959" height="163.336" viewBox="0 0 188.959 163.336">
  <g id="Icon" transform="translate(-411 -1046)">
    <path id="Path_53" data-name="Path 53" d="M85,0c47,15,130,67,85,85s-49,87-85,75S-28,109,0,85,38-15,85,0Z" transform="translate(417.006 1047.943)" fill="#ffe8f2"/>
    <g id="infected" transform="translate(459 1057.911)">
      <g id="Group_12" data-name="Group 12" transform="translate(1.235 24.315)">
        <g id="Group_8" data-name="Group 8" transform="translate(0 0)">
          <path id="Path_90" data-name="Path 90" d="M39.18,145.431c0-13.678-.415-27.969-3.779-27.356C24.05,120.144,9.233,136.741,8,170.713a3.223,3.223,0,0,0,4.181,3.191,100.315,100.315,0,0,1,11.368-2.917c11.075-1.98,15.63-4.319,15.63-25.556Z" transform="translate(-8 -104.629)" fill="#fe0470"/>
          <path id="Path_91" data-name="Path 91" d="M301.92,145.431c0-13.678.415-27.969,3.779-27.356,11.35,2.069,26.168,18.665,27.4,52.637a3.223,3.223,0,0,1-4.181,3.191,100.321,100.321,0,0,0-11.368-2.917c-11.075-1.98-15.63-4.319-15.63-25.556Z" transform="translate(-256.569 -104.629)" fill="#fe0470"/>
          <path id="Path_92" data-name="Path 92" d="M23.55,307.778a100.327,100.327,0,0,0-11.368,2.917,3.226,3.226,0,0,1-4.094-2.323c-.033.631-.063,1.266-.086,1.909a3.223,3.223,0,0,0,4.181,3.191,100.318,100.318,0,0,1,11.368-2.917c11.075-1.98,15.63-4.319,15.63-25.556q0-.954,0-1.91C39.053,303.522,34.472,305.825,23.55,307.778Z" transform="translate(-8 -244.198)" fill="#ff90d1"/>
          <path id="Path_93" data-name="Path 93" d="M333.013,308.374a3.226,3.226,0,0,1-4.094,2.323,100.327,100.327,0,0,0-11.368-2.917c-10.922-1.952-15.5-4.256-15.627-24.689q0,.955,0,1.91c0,21.237,4.555,23.576,15.63,25.556a100.334,100.334,0,0,1,11.367,2.917,3.223,3.223,0,0,0,4.181-3.191c-.023-.644-.053-1.279-.086-1.91Z" transform="translate(-256.57 -244.2)" fill="#ff90d1"/>
          <path id="Path_94" data-name="Path 94" d="M222.992,57.53c-1.981-1.757-3.786-3.934-3.786-6.031V34.615a3.58,3.58,0,1,0-7.16,0V51.5c0,2.1-1.8,4.274-3.786,6.031.123,2.372.2,4.936.236,7.574a28.514,28.514,0,0,0,7.131-6.673,28.514,28.514,0,0,0,7.131,6.673c.04-2.638.112-5.2.236-7.574Z" transform="translate(-177.36 -31.035)" fill="#ffd0c7"/>
          <path id="Path_95" data-name="Path 95" d="M215.864,185.082a43.749,43.749,0,0,1-6.61,6.328c.036,1.217.063,2.464.082,3.728a28.514,28.514,0,0,0,7.131-6.673,28.514,28.514,0,0,0,7.131,6.673c.019-1.264.046-2.511.082-3.728a43.747,43.747,0,0,1-6.61-6.328A.774.774,0,0,0,215.864,185.082Z" transform="translate(-178.201 -161.069)" fill="#f7c4a8"/>
        </g>
        <g id="Group_9" data-name="Group 9" transform="translate(10.541 47.19)">
          <circle id="Ellipse_17" data-name="Ellipse 17" cx="4.364" cy="4.364" r="4.364" transform="matrix(0.987, -0.16, 0.16, 0.987, 0, 1.396)" fill="#ffa700"/>
        </g>
        <g id="Group_10" data-name="Group 10" transform="translate(53.228 32.559)">
          <circle id="Ellipse_18" data-name="Ellipse 18" cx="4.364" cy="4.364" r="4.364" fill="#ffa700"/>
        </g>
        <path id="Path_96" data-name="Path 96" d="M84.913,363.3a4.365,4.365,0,0,1-4.137-2.975,4.364,4.364,0,1,0,8.274,0A4.365,4.365,0,0,1,84.913,363.3Z" transform="translate(-69.355 -309.518)" fill="#ffce6e"/>
        <path id="Path_97" data-name="Path 97" d="M357.337,264.306a4.365,4.365,0,0,1-4.137-2.975,4.364,4.364,0,1,0,8.274,0A4.365,4.365,0,0,1,357.337,264.306Z" transform="translate(-299.745 -225.797)" fill="#ffce6e"/>
        <g id="Group_11" data-name="Group 11" transform="translate(16.961 22.945)">
          <circle id="Ellipse_19" data-name="Ellipse 19" cx="2.793" cy="2.793" r="2.793" transform="translate(0 3.95) rotate(-45)" fill="#ebf2f8"/>
          <circle id="Ellipse_20" data-name="Ellipse 20" cx="2.793" cy="2.793" r="2.793" transform="matrix(0.94, -0.34, 0.34, 0.94, 36.018, 32.406)" fill="#ebf2f8"/>
          <circle id="Ellipse_21" data-name="Ellipse 21" cx="2.793" cy="2.793" r="2.793" transform="translate(1.223 15.685) rotate(-45)" fill="#ebf2f8"/>
          <circle id="Ellipse_22" data-name="Ellipse 22" cx="2.793" cy="2.793" r="2.793" transform="translate(45.328 26.461) rotate(-45)" fill="#ebf2f8"/>
        </g>
        <path id="Path_98" data-name="Path 98" d="M128.25,197.749a2.79,2.79,0,0,1-2.421-1.4,2.793,2.793,0,1,0,4.843,0A2.79,2.79,0,0,1,128.25,197.749Z" transform="translate(-107.334 -170.837)" fill="#d6e3ed"/>
        <path id="Path_99" data-name="Path 99" d="M359.493,392.976a2.79,2.79,0,0,1-2.421-1.4,2.793,2.793,0,1,0,4.843,0A2.791,2.791,0,0,1,359.493,392.976Z" transform="translate(-302.897 -335.941)" fill="#d6e3ed"/>
        <path id="Path_100" data-name="Path 100" d="M136.182,273.813a2.79,2.79,0,0,1-2.421-1.4,2.793,2.793,0,1,0,4.843,0A2.791,2.791,0,0,1,136.182,273.813Z" transform="translate(-114.042 -235.165)" fill="#d6e3ed"/>
        <path id="Path_101" data-name="Path 101" d="M422.066,343.629a2.79,2.79,0,0,1-2.421-1.4,2.793,2.793,0,1,0,4.843,0A2.79,2.79,0,0,1,422.066,343.629Z" transform="translate(-355.815 -294.208)" fill="#d6e3ed"/>
      </g>
      <g id="Group_13" data-name="Group 13" transform="translate(0 23.089)">
        <path id="Path_102" data-name="Path 102" d="M79,90.42C78.434,74.863,74.944,61.4,68.9,51.5c-5.05-8.282-11.724-13.72-18.311-14.92a2.269,2.269,0,0,0-1.909.525c-1.44,1.2-2.33,4.487-2.805,11.038a5.666,5.666,0,0,1-1.633-3.391V37.16a1.16,1.16,0,0,0-2.319,0v7.593c0,2.014,1.268,4.209,3.767,6.531q-.105,2.23-.165,4.869a25.574,25.574,0,0,1-5.093-5.137,1.159,1.159,0,0,0-1.874,0,25.574,25.574,0,0,1-5.093,5.137q-.061-2.644-.165-4.869c2.5-2.322,3.767-4.517,3.767-6.531V27.836a2.428,2.428,0,1,1,4.855,0v4.686a1.16,1.16,0,0,0,2.319,0V27.836a4.747,4.747,0,0,0-9.493,0V44.753a5.667,5.667,0,0,1-1.633,3.391c-.476-6.551-1.365-9.836-2.805-11.038a2.27,2.27,0,0,0-1.909-.525,22.688,22.688,0,0,0-10.6,5.535,42.831,42.831,0,0,0-9.677,12.9A1.159,1.159,0,1,0,10.2,56.071c4.862-9.528,11.814-15.957,18.6-17.206.164.1,1.284,1.065,1.914,8.372.465,5.389.524,12.393.524,17.893,0,10.228-1.031,16.018-3.449,19.359-2.174,3-5.5,4.076-11.256,5.106A102.091,102.091,0,0,0,5.006,92.552,2.07,2.07,0,0,1,2.321,90.5c.417-11.516,2.416-21.683,5.942-30.219A1.16,1.16,0,1,0,6.119,59.4C2.488,68.191.43,78.627,0,90.42A4.391,4.391,0,0,0,5.7,94.766a99.813,99.813,0,0,1,11.249-2.889c5.256-.94,9.842-2.042,12.727-6.029,2.726-3.767,3.889-9.963,3.889-20.718,0-2.2-.013-4.24-.039-6.139A30.017,30.017,0,0,0,39.5,53.586a30.008,30.008,0,0,0,5.978,5.405c-.026,1.9-.039,3.941-.039,6.139,0,10.755,1.163,16.951,3.889,20.718,2.885,3.987,7.471,5.09,12.727,6.029.58.1,1.2.225,1.831.36a1.16,1.16,0,0,0,.483-2.268c-.66-.141-1.3-.267-1.906-.375-5.76-1.03-9.083-2.1-11.256-5.106-2.418-3.341-3.449-9.13-3.449-19.359,0-5.5.06-12.5.524-17.893.63-7.308,1.75-8.269,1.914-8.372C56.129,39.954,62.224,45,66.925,52.708c5.833,9.565,9.206,22.635,9.755,37.8A2.07,2.07,0,0,1,74,92.552c-1.755-.547-3.462-1.044-5.07-1.476a1.159,1.159,0,1,0-.6,2.239c1.58.424,3.256.913,4.983,1.451A4.389,4.389,0,0,0,79,90.42Z" transform="translate(0 -23.089)"/>
        <path id="Path_103" data-name="Path 103" d="M60.936,327.157a1.16,1.16,0,0,0,0,2.319h.956a5.5,5.5,0,0,0,.766,1.843L61.98,332a1.16,1.16,0,0,0,1.64,1.64l.678-.678a5.5,5.5,0,0,0,1.843.766v.956a1.16,1.16,0,0,0,2.319,0v-.956a5.5,5.5,0,0,0,1.843-.766l.678.678a1.16,1.16,0,0,0,1.64-1.64l-.678-.678a5.5,5.5,0,0,0,.766-1.843h.956a1.16,1.16,0,0,0,0-2.319H72.71a5.5,5.5,0,0,0-.766-1.843l.678-.678a1.159,1.159,0,1,0-1.64-1.64l-.678.678a5.5,5.5,0,0,0-1.843-.766v-.956a1.16,1.16,0,0,0-2.319,0v.956a5.5,5.5,0,0,0-1.843.766L63.62,323a1.159,1.159,0,1,0-1.64,1.64l.678.678a5.5,5.5,0,0,0-.766,1.843ZM67.3,325.1a3.213,3.213,0,1,1-3.213,3.213A3.217,3.217,0,0,1,67.3,325.1Z" transform="translate(-50.553 -274.857)"/>
        <path id="Path_104" data-name="Path 104" d="M343.94,234.445a1.16,1.16,0,1,0,1.64-1.64l-.678-.678a5.5,5.5,0,0,0,.766-1.843h.957a1.16,1.16,0,0,0,0-2.319h-.957a5.5,5.5,0,0,0-.766-1.843l.678-.678a1.159,1.159,0,0,0-1.64-1.64l-.678.678a5.5,5.5,0,0,0-1.843-.766v-.957a1.16,1.16,0,1,0-2.319,0v.957a5.5,5.5,0,0,0-1.843.766l-.678-.678a1.159,1.159,0,0,0-1.64,1.64l.678.678a5.5,5.5,0,0,0-.766,1.843h-.957a1.16,1.16,0,0,0,0,2.319h.957a5.5,5.5,0,0,0,.766,1.843l-.678.678a1.16,1.16,0,0,0,1.64,1.64l.678-.678a5.5,5.5,0,0,0,1.843.766v.956a1.16,1.16,0,0,0,2.319,0v-.956a5.5,5.5,0,0,0,1.843-.766Zm-3.681-2.108a3.213,3.213,0,1,1,3.213-3.213A3.217,3.217,0,0,1,340.258,232.338Z" transform="translate(-281.394 -190.97)"/>
        <path id="Path_105" data-name="Path 105" d="M121.645,179.6a3.958,3.958,0,1,0,3.958,3.958A3.963,3.963,0,0,0,121.645,179.6Zm0,5.6a1.639,1.639,0,1,1,1.639-1.639A1.641,1.641,0,0,1,121.645,185.2Z" transform="translate(-99.528 -155.452)"/>
        <path id="Path_106" data-name="Path 106" d="M349.382,379.169a3.958,3.958,0,1,0,3.958-3.958A3.963,3.963,0,0,0,349.382,379.169Zm5.6,0a1.639,1.639,0,1,1-1.639-1.639A1.641,1.641,0,0,1,354.979,379.169Z" transform="translate(-295.473 -320.88)"/>
        <path id="Path_107" data-name="Path 107" d="M125.634,259.772a3.958,3.958,0,1,0,3.958-3.958A3.963,3.963,0,0,0,125.634,259.772Zm5.6,0a1.639,1.639,0,1,1-1.639-1.639A1.641,1.641,0,0,1,131.231,259.772Z" transform="translate(-106.249 -219.905)"/>
        <path id="Path_108" data-name="Path 108" d="M416.037,333.684a3.958,3.958,0,1,0-3.958-3.958A3.963,3.963,0,0,0,416.037,333.684Zm0-5.6a1.639,1.639,0,1,1-1.639,1.639A1.641,1.641,0,0,1,416.037,328.087Z" transform="translate(-348.496 -279.065)"/>
      </g>
    </g>
  </g>
</svg>
