<svg xmlns="http://www.w3.org/2000/svg" width="23.51" height="19.884" viewBox="0 0 23.51 19.884">
  <g id="shopping-cart" transform="translate(0.255 -40.03)">
    <path id="Path_5" data-name="Path 5" d="M22.658,46.787a1.589,1.589,0,0,0-1.25-.6H16.979l-2.4-5.5a.674.674,0,1,0-1.235.539l2.166,4.961H7.492l2.166-4.961a.674.674,0,1,0-1.235-.539l-2.4,5.5H1.592a1.589,1.589,0,0,0-1.25.6,1.551,1.551,0,0,0-.3,1.32L2.405,58.438a1.579,1.579,0,0,0,1.552,1.225H19.043a1.579,1.579,0,0,0,1.552-1.225L22.96,48.106A1.552,1.552,0,0,0,22.658,46.787ZM19.043,58.316H3.957a.241.241,0,0,1-.238-.178L1.353,47.806a.206.206,0,0,1,.042-.179.245.245,0,0,1,.2-.092H5.433l-.176.4a.674.674,0,1,0,1.235.539l.412-.944H16.1l.412.944a.674.674,0,0,0,1.235-.539l-.176-.4h3.841a.245.245,0,0,1,.2.092.206.206,0,0,1,.042.179L19.281,58.138A.241.241,0,0,1,19.043,58.316Z" transform="translate(0 0)" fill="#fff" stroke="#fff" stroke-width="0.5"/>
    <path id="Path_6" data-name="Path 6" d="M151.732,266.717a.732.732,0,0,0-.732.732v5.371a.732.732,0,0,0,1.465,0v-5.371A.732.732,0,0,0,151.732,266.717Z" transform="translate(-144.254 -216.875)" fill="#fff" stroke="#fff" stroke-width="0.5"/>
    <path id="Path_7" data-name="Path 7" d="M241.732,266.717a.732.732,0,0,0-.732.732v5.371a.732.732,0,0,0,1.465,0v-5.371A.732.732,0,0,0,241.732,266.717Z" transform="translate(-230.232 -216.875)" fill="#fff" stroke="#fff" stroke-width="0.5"/>
    <path id="Path_8" data-name="Path 8" d="M331.732,266.717a.732.732,0,0,0-.732.732v5.371a.732.732,0,0,0,1.465,0v-5.371A.732.732,0,0,0,331.732,266.717Z" transform="translate(-316.211 -216.875)" fill="#fff" stroke="#fff" stroke-width="0.5"/>
  </g>
</svg>
