<svg xmlns="http://www.w3.org/2000/svg" width="188.959" height="163.336" viewBox="0 0 188.959 163.336">
  <g id="Icon" transform="translate(-411 -1046)">
    <path id="Path_53" data-name="Path 53" d="M85,0c47,15,130,67,85,85s-49,87-85,75S-28,109,0,85,38-15,85,0Z" transform="translate(417.006 1047.943)" fill="#ffe8f2"/>
    <g id="Corona_Virus_Symptoms_Cough" data-name="Corona Virus Symptoms Cough" transform="translate(416.065 1087.979)">
      <g id="Filled" transform="translate(49.195 1.268)">
        <path id="Path_72" data-name="Path 72" d="M193.291,120H162.049v11.024l-4.061,5.222,4.061,2.5.926,3.087c4.074-.587,4.56,1.015,5.324,3.162l-3.806,1.9a4.755,4.755,0,0,0,5.708,3.247l5.594-1.4v6.248a40.813,40.813,0,0,0-3.619,5c9.965-.054,21.114-6.247,21.114-6.247Z" transform="translate(-142.056 -102.504)" fill="#ffd0c7"/>
        <path id="Path_73" data-name="Path 73" d="M269.948,188.771a36.364,36.364,0,0,1-17.5,19.157v5.091a40.811,40.811,0,0,0-3.619,5c9.965-.054,21.114-6.247,21.114-6.247Z" transform="translate(-218.711 -160.533)" fill="#ffd5c7"/>
        <path id="Path_74" data-name="Path 74" d="M214.378,342.247c-7.42,11.846-6.252,20.643-6.379,21.246H244.24v-1.25c0-8.748-1.25-16.246-8.748-26.243C235.492,336,224.343,342.193,214.378,342.247Z" transform="translate(-184.256 -284.763)" fill="#cb0476"/>
        <path id="Path_75" data-name="Path 75" d="M240.074,382.064a32.525,32.525,0,0,1-31.951,16.355,38.163,38.163,0,0,0-.128,3.942h36.241c-.18-3.52.646-11.015-4.162-20.3Z" transform="translate(-184.252 -323.631)" fill="#cb0476"/>
        <path id="Path_76" data-name="Path 76" d="M303.5,392a7.5,7.5,0,0,0-7.5,7.5v11.247h15V399.5A7.5,7.5,0,0,0,303.5,392Z" transform="translate(-258.51 -332.015)" fill="#fe0470"/>
        <circle id="Ellipse_13" data-name="Ellipse 13" cx="2.499" cy="2.499" r="2.499" transform="translate(41.239 63.734)" fill="#d5f7ed"/>
        <circle id="Ellipse_14" data-name="Ellipse 14" cx="1.25" cy="1.25" r="1.25" transform="translate(46.238 68.732)" fill="#fe0470"/>
        <path id="Path_77" data-name="Path 77" d="M144.019,11.525s-1.25,17.5,12.075,17.719h11.638a3.117,3.117,0,0,1,3.749,3.2c0,6.578.016,16.576,10,20.325,15.728-20.046,13.07-39.791,3.576-40.137-4.825-11.1-26.536,1.255-36.228,1.255-3.633,0-4.807-2.357-4.807-2.357Z" transform="translate(-130.243 -8)" fill="#ffa700"/>
        <path id="Path_78" data-name="Path 78" d="M339.125,46.16A34.374,34.374,0,0,1,322.22,71.817c.719,5.247,2.917,10.618,9.649,13.147,13.434-17.122,13.452-34.022,7.256-38.8Z" transform="translate(-280.634 -40.199)" fill="#ffa700"/>
        <path id="Path_79" data-name="Path 79" d="M299.737,163.089c0-5,6.248-5,6.248,1.25,0,3.451-1.548,6.248-5,6.248h-5v-7.5Z" transform="translate(-258.5 -135.82)" fill="#ffdfc5"/>
        <circle id="Ellipse_15" data-name="Ellipse 15" cx="4.374" cy="4.374" r="4.374" transform="translate(38.738 2.499)" fill="#cb0476"/>
        <circle id="Ellipse_16" data-name="Ellipse 16" cx="1.875" cy="1.875" r="1.875" transform="translate(48.736 9.997)" fill="#cb0476"/>
        <path id="Path_80" data-name="Path 80" d="M319.748,165.316a14.357,14.357,0,0,1-5.881,10.193h2.206C321.719,175.509,322.056,167.661,319.748,165.316Z" transform="translate(-273.586 -140.742)" fill="#ffd5c7"/>
        <path id="Path_81" data-name="Path 81" d="M59.749,322.991H69.17l-.673-8.748c4.686-6.247,3.6-12.523,3.749-13.746a2.5,2.5,0,0,0-5,0v2.82a2.18,2.18,0,0,1-4.246.689L61,298l1.59-6.36A2.927,2.927,0,0,0,59.749,288L56,298l3.749,16.246Z" transform="translate(-56 -244.261)" fill="#ffd0c7"/>
      </g>
      <g id="Outline" transform="translate(47.935 0.021)">
        <path id="Path_82" data-name="Path 82" d="M314.332,162.588a1.25,1.25,0,0,0,0,2.5c8.29,0,7.9-13.6,1.614-13.6-4.081,0-5.366,6.105-2.863,6.105a1.25,1.25,0,0,0,1.25-1.25c0-1.628.811-2.356,1.614-2.356C318.895,153.983,319.248,162.588,314.332,162.588Z" transform="translate(-270.585 -127.824)"/>
        <path id="Path_83" data-name="Path 83" d="M296.736,384a8.758,8.758,0,0,0-8.748,8.748v10a1.25,1.25,0,1,0,2.5,0v-10a6.248,6.248,0,0,1,12.5,0v10a1.25,1.25,0,0,0,2.5,0v-10A8.758,8.758,0,0,0,296.736,384Z" transform="translate(-250.489 -324.019)"/>
        <path id="Path_84" data-name="Path 84" d="M129.3,258.5h2.5a1.25,1.25,0,0,0,0-2.5h-2.5A1.25,1.25,0,0,0,129.3,258.5Z" transform="translate(-115.545 -216.014)"/>
        <path id="Path_85" data-name="Path 85" d="M175.988,313.3v2.5a1.25,1.25,0,0,0,2.5,0v-2.5A1.25,1.25,0,0,0,175.988,313.3Z" transform="translate(-155.985 -263.318)"/>
        <path id="Path_86" data-name="Path 86" d="M136.26,290.77a1.25,1.25,0,0,0,1.768,1.767l2.5-2.5a1.25,1.25,0,0,0-1.768-1.767Z" transform="translate(-122.139 -242.919)"/>
        <path id="Path_87" data-name="Path 87" d="M62.941,289.937a3.753,3.753,0,0,0-3.749,3.749v2.82a.93.93,0,0,1-1.81.294l-1.888-5.663c.852-4.744,2.705-7.076.742-9.591-1.134-1.453-3.874-2.366-4.462-.8-3.9,10.6-3.948,10.062-3.8,10.718l3.717,16.107v7.356a1.25,1.25,0,0,0,2.5,0c-.011-7.869.027-7.525-.031-7.779L50.5,291.273l3.239-8.636a1.678,1.678,0,0,1,.836,1.887c-1.578,6.581-1.765,6.451-1.564,7.059l2,6.008a3.431,3.431,0,0,0,6.681-1.084v-2.82a1.25,1.25,0,0,1,2.5,0c-.15,1.2.9,7.133-3.5,13a1.251,1.251,0,0,0-.246.846l.577,7.5a1.25,1.25,0,0,0,1.245,1.154c.032,0,.065,0,.1,0a1.25,1.25,0,0,0,1.15-1.342l-.542-7.038c4.634-6.5,3.57-12.908,3.718-14.111A3.753,3.753,0,0,0,62.941,289.937Z" transform="translate(-47.935 -236.204)"/>
        <path id="Path_88" data-name="Path 88" d="M186.159,25.875c1.462-6.214,1.242-11.842-.617-15.848C184.113,6.95,181.811,5.088,179,4.712,176.249-.466,170.1-.483,164.338.571a1.25,1.25,0,0,0,.45,2.458C171.7,1.764,175.48,2.8,177.042,6.395a1.25,1.25,0,0,0,1.1.751c8.057.293,10.475,18.451-3.939,37.373a12.432,12.432,0,0,1-5.13-4.005A1.25,1.25,0,1,0,167.067,42a15.129,15.129,0,0,0,6.294,4.871v4.879c-2.234,1.15-9.933,4.868-17.44,5.618,3.685-5.278,2-.65,2.444-9.864a1.25,1.25,0,0,0-.481-.985c-.835-.652-1.328-.01-6.666,1.172a3.5,3.5,0,0,1-3.768-1.455c1.463-.948,3.927-1.267,3.346-2.9-.9-2.535-1.8-4.315-5.6-4.092l-.63-2.1c-.231-.772-.832-.781-3.416-2.474,4.445-6.219,3.344-1.781,3.469-11.752,3.9,1.489,7.279.513,16.246.839a1.25,1.25,0,0,0,0-2.5h-11.58c-.234-.165-9.977,1.028-10.86-13.665,3.816,1.984,10.149-.189,16.86-2.14a1.25,1.25,0,0,0-.7-2.4c-7.313,2.292-14.488,4.378-16.312,1.17a1.244,1.244,0,0,0-2.361.476c-.408,5.679,1.271,13.38,6.212,16.884v7.769c-5.393,7.257-5.595,5.159.189,8.965l.79,2.631c.646,2.155,3.729-.776,4.959,2.186-1.639,1.04-3.918,1.288-3.441,2.877a6,6,0,0,0,7.208,4.1l4.041-1.01v4.187c-5.448,6.541-10,16.3-10,25.454a1.25,1.25,0,1,0,2.5,0c0-7.5,3.145-14.3,5.85-18.76,8.35-.27,17.13-4.4,20.026-5.876C186.109,70.484,179.687,80,183.358,80a1.25,1.25,0,0,0,1.25-1.25c0-9.154-1.472-16.829-8.748-26.658V46.463a54.879,54.879,0,0,0,10.3-20.588Z" transform="translate(-122.115 -0.021)"/>
        <path id="Path_89" data-name="Path 89" d="M282.5,9.3a1.25,1.25,0,0,0-2.5,0A1.25,1.25,0,0,0,282.5,9.3Z" transform="translate(-243.749 -6.806)"/>
      </g>
    </g>
  </g>
</svg>
