<svg xmlns="http://www.w3.org/2000/svg" width="188.959" height="163.336" viewBox="0 0 188.959 163.336">
  <g id="Icon" transform="translate(-411 -1046)">
    <path id="Path_53" data-name="Path 53" d="M85,0c47,15,130,67,85,85s-49,87-85,75S-28,109,0,85,38-15,85,0Z" transform="translate(417.006 1047.943)" fill="#ffe8f2"/>
    <g id="social-distancing" transform="translate(457 1088)">
      <g id="Group_35" data-name="Group 35" transform="translate(1.143 15.3)">
        <g id="Group_23" data-name="Group 23" transform="translate(0 12.311)">
          <path id="Path_209" data-name="Path 209" d="M7.5,188.635v3.232h4.925v11.542h13.85V191.867H31.2v-3.232a7.387,7.387,0,0,0-7.387-7.387H14.887A7.387,7.387,0,0,0,7.5,188.635Z" transform="translate(-7.5 -181.248)" fill="#ffa700"/>
        </g>
        <g id="Group_26" data-name="Group 26" transform="translate(13.235 12.311)">
          <g id="Group_24" data-name="Group 24" transform="translate(2.462 7.541)">
            <path id="Path_210" data-name="Path 210" d="M110.536,245.366h3.078v-14.62h-1.539a1.539,1.539,0,0,0-1.539,1.539Z" transform="translate(-110.536 -230.746)" fill="#ffd78a"/>
          </g>
          <g id="Group_25" data-name="Group 25">
            <path id="Path_211" data-name="Path 211" d="M97.452,181.248H94.374a7.387,7.387,0,0,1,7.387,7.387v3.232h3.078v-3.232a7.387,7.387,0,0,0-7.387-7.387Z" transform="translate(-94.374 -181.248)" fill="#fbcf7d"/>
          </g>
        </g>
        <g id="Group_27" data-name="Group 27" transform="translate(18.775 22.93)">
          <path id="Path_212" data-name="Path 212" d="M135.665,250.949H130.74v11.542a2.462,2.462,0,1,0,4.925,0Z" transform="translate(-130.74 -250.949)" fill="#ffddce"/>
        </g>
        <g id="Group_28" data-name="Group 28" transform="translate(0 22.93)">
          <path id="Path_213" data-name="Path 213" d="M12.425,250.949H7.5v11.542a2.462,2.462,0,1,0,4.925,0Z" transform="translate(-7.5 -250.949)" fill="#ffddce"/>
        </g>
        <g id="Group_29" data-name="Group 29" transform="translate(5.694)">
          <circle id="Ellipse_26" data-name="Ellipse 26" cx="6.156" cy="6.156" r="6.156" fill="#ffd0c7"/>
        </g>
        <g id="Group_30" data-name="Group 30" transform="translate(6.365 0.671)">
          <path id="Path_214" data-name="Path 214" d="M57.559,104.84a6.155,6.155,0,0,1-8.278,8.278,6.155,6.155,0,1,0,8.278-8.278Z" transform="translate(-49.281 -104.84)" fill="#e6cfcb"/>
        </g>
        <g id="Group_31" data-name="Group 31" transform="translate(4.925 34.472)">
          <path id="Path_215" data-name="Path 215" d="M39.825,326.711h13.85v22.16H39.825Z" transform="translate(-39.825 -326.711)" fill="#ffd0c7"/>
        </g>
        <g id="Group_32" data-name="Group 32" transform="translate(15.697 34.472)">
          <path id="Path_216" data-name="Path 216" d="M110.537,326.711h3.078v22.16h-3.078Z" transform="translate(-110.537 -326.711)" fill="#ffb6a8"/>
        </g>
        <g id="Group_33" data-name="Group 33" transform="translate(11.85 56.632)">
          <path id="Path_217" data-name="Path 217" d="M92.208,477.1H85.283v-4.924h6.925a1.539,1.539,0,0,1,1.539,1.539v1.847A1.539,1.539,0,0,1,92.208,477.1Z" transform="translate(-85.283 -472.175)" fill="#6bbef6"/>
        </g>
        <g id="Group_34" data-name="Group 34" transform="translate(3.386 56.632)">
          <path id="Path_218" data-name="Path 218" d="M31.262,477.1h6.925v-4.924H31.262a1.539,1.539,0,0,0-1.539,1.539v1.847A1.539,1.539,0,0,0,31.262,477.1Z" transform="translate(-29.723 -472.175)" fill="#90d8f9"/>
        </g>
      </g>
      <g id="Group_48" data-name="Group 48" transform="translate(53.158 15.3)">
        <g id="Group_36" data-name="Group 36" transform="translate(0 12.311)">
          <path id="Path_219" data-name="Path 219" d="M348.935,188.635v3.232h4.924v11.542h13.85V191.867h4.924v-3.232a7.387,7.387,0,0,0-7.387-7.387h-8.926A7.387,7.387,0,0,0,348.935,188.635Z" transform="translate(-348.935 -181.248)" fill="#fe0470"/>
        </g>
        <g id="Group_39" data-name="Group 39" transform="translate(13.235 12.311)">
          <g id="Group_37" data-name="Group 37" transform="translate(2.462 7.541)">
            <path id="Path_220" data-name="Path 220" d="M451.971,245.366h3.078v-14.62H453.51a1.539,1.539,0,0,0-1.539,1.539Z" transform="translate(-451.971 -230.746)" fill="#dd636e"/>
          </g>
          <g id="Group_38" data-name="Group 38">
            <path id="Path_221" data-name="Path 221" d="M438.887,181.248h-3.078a7.387,7.387,0,0,1,7.387,7.387v3.232h3.078v-3.232a7.387,7.387,0,0,0-7.387-7.387Z" transform="translate(-435.809 -181.248)" fill="#dd636e"/>
          </g>
        </g>
        <g id="Group_40" data-name="Group 40" transform="translate(18.775 22.93)">
          <path id="Path_222" data-name="Path 222" d="M477.1,250.949h-4.924v11.542a2.462,2.462,0,0,0,4.925,0Z" transform="translate(-472.175 -250.949)" fill="#ffddce"/>
        </g>
        <g id="Group_41" data-name="Group 41" transform="translate(0 22.93)">
          <path id="Path_223" data-name="Path 223" d="M353.859,250.949h-4.924v11.542a2.462,2.462,0,1,0,4.925,0Z" transform="translate(-348.935 -250.949)" fill="#ffddce"/>
        </g>
        <g id="Group_42" data-name="Group 42" transform="translate(5.694)">
          <circle id="Ellipse_27" data-name="Ellipse 27" cx="6.156" cy="6.156" r="6.156" fill="#ffddce"/>
        </g>
        <g id="Group_43" data-name="Group 43" transform="translate(6.365 0.671)">
          <path id="Path_224" data-name="Path 224" d="M398.994,104.84a6.155,6.155,0,0,1-8.278,8.278,6.155,6.155,0,1,0,8.278-8.278Z" transform="translate(-390.716 -104.84)" fill="#ffcbbe"/>
        </g>
        <g id="Group_44" data-name="Group 44" transform="translate(4.925 34.472)">
          <path id="Path_225" data-name="Path 225" d="M381.26,326.711h13.85v22.16H381.26Z" transform="translate(-381.26 -326.711)" fill="#90d8f9"/>
        </g>
        <g id="Group_45" data-name="Group 45" transform="translate(15.697 34.472)">
          <path id="Path_226" data-name="Path 226" d="M451.972,326.711h3.078v22.16h-3.078Z" transform="translate(-451.972 -326.711)" fill="#6bbef6"/>
        </g>
        <g id="Group_46" data-name="Group 46" transform="translate(11.85 56.632)">
          <path id="Path_227" data-name="Path 227" d="M433.643,477.1h-6.925v-4.924h6.925a1.539,1.539,0,0,1,1.539,1.539v1.847A1.539,1.539,0,0,1,433.643,477.1Z" transform="translate(-426.718 -472.175)" fill="#26457d"/>
        </g>
        <g id="Group_47" data-name="Group 47" transform="translate(3.386 56.632)">
          <path id="Path_228" data-name="Path 228" d="M372.7,477.1h6.925v-4.924H372.7a1.539,1.539,0,0,0-1.539,1.539v1.847A1.539,1.539,0,0,0,372.7,477.1Z" transform="translate(-371.158 -472.175)" fill="#30579d"/>
        </g>
      </g>
      <g id="Group_50" data-name="Group 50" transform="translate(0 0)">
        <g id="Group_49" data-name="Group 49" transform="translate(0 0)">
          <path id="Path_229" data-name="Path 229" d="M18.252,105.286a7.3,7.3,0,1,0-10.52,0A8.54,8.54,0,0,0,0,113.777V128.55A3.6,3.6,0,0,0,4.925,131.9v17.923a2.682,2.682,0,0,0-1.54,2.423V154.1a2.685,2.685,0,0,0,2.682,2.682h13.85A2.685,2.685,0,0,0,22.6,154.1V152.25a2.682,2.682,0,0,0-1.539-2.422V142.3a1.143,1.143,0,1,0-2.285,0v7.271h-4.64V134.925h.858a1.143,1.143,0,1,0,0-2.285h-4a1.143,1.143,0,1,0,0,2.285h.858v14.642H7.21V129.693H18.775v7.271a1.143,1.143,0,0,0,2.285,0V131.9a3.6,3.6,0,0,0,4.925-3.354V113.776a8.54,8.54,0,0,0-7.732-8.491Zm-5.26-10.065a5.013,5.013,0,1,1-5.013,5.013A5.019,5.019,0,0,1,12.992,95.221ZM3.6,129.87a1.321,1.321,0,0,1-1.32-1.32v-10.4H4.925v10.4A1.321,1.321,0,0,1,3.6,129.87ZM5.671,154.1v-1.847a.4.4,0,0,1,.4-.4H11.85v2.64H6.067a.4.4,0,0,1-.4-.4Zm14.643,0a.4.4,0,0,1-.4.4H14.135v-2.639h5.783a.4.4,0,0,1,.4.4ZM22.38,129.87a1.321,1.321,0,0,1-1.32-1.318v-10.4H23.7v10.4A1.321,1.321,0,0,1,22.38,129.87Zm1.32-14H21.06V113.93a1.143,1.143,0,1,0-2.285,0v13.477H7.21V113.93a1.143,1.143,0,1,0-2.285,0v1.935H2.285v-2.089a6.251,6.251,0,0,1,6.244-6.244h8.926a6.251,6.251,0,0,1,6.244,6.244Z" transform="translate(0 -78.778)"/>
          <path id="Path_230" data-name="Path 230" d="M359.683,105.286a7.3,7.3,0,1,0-10.52,0,8.54,8.54,0,0,0-7.732,8.491v5.592a1.143,1.143,0,1,0,2.285,0v-1.217h2.64v10.4a1.32,1.32,0,0,1-1.319,1.319,1.322,1.322,0,0,1-1.321-1.319V124.7a1.143,1.143,0,0,0-2.285,0v3.85a3.608,3.608,0,0,0,4.925,3.355v17.922a2.682,2.682,0,0,0-1.539,2.422V154.1a2.685,2.685,0,0,0,2.682,2.682h13.85a2.685,2.685,0,0,0,2.682-2.682v-1.847a2.682,2.682,0,0,0-1.54-2.423V142.3a1.143,1.143,0,1,0-2.285,0v7.271h-4.639V134.925h.858a1.143,1.143,0,0,0,0-2.285h-4a1.143,1.143,0,1,0,0,2.285h.858v14.642h-4.64V129.693H360.2v7.271a1.143,1.143,0,0,0,2.285,0V131.9a3.6,3.6,0,0,0,4.925-3.353V113.776a8.54,8.54,0,0,0-7.732-8.491Zm-5.26-10.065a5.013,5.013,0,1,1-5.013,5.013A5.019,5.019,0,0,1,354.423,95.221Zm-10.707,20.645v-2.089a6.251,6.251,0,0,1,6.244-6.244h8.926a6.251,6.251,0,0,1,6.244,6.244v2.089h-2.639V113.93a1.143,1.143,0,1,0-2.285,0v13.477H348.64V113.93a1.143,1.143,0,1,0-2.285,0v1.935ZM347.1,154.1v-1.847a.4.4,0,0,1,.4-.4h5.783v2.64H347.5A.4.4,0,0,1,347.1,154.1Zm14.643,0a.4.4,0,0,1-.4.4h-5.783v-2.639h5.783a.4.4,0,0,1,.4.4Zm2.066-24.226a1.321,1.321,0,0,1-1.32-1.32v-10.4h2.64v10.4A1.321,1.321,0,0,1,363.81,129.87Z" transform="translate(-289.415 -78.778)"/>
          <path id="Path_231" data-name="Path 231" d="M182.321,112.269l-3.847-3.847a1.143,1.143,0,0,0-1.616,1.616l1.9,1.9H154.416l1.9-1.9a1.143,1.143,0,1,0-1.616-1.616l-3.847,3.847a1.142,1.142,0,0,0,0,1.616l3.847,3.847a1.143,1.143,0,1,0,1.616-1.616l-1.9-1.9h24.338l-1.9,1.9a1.143,1.143,0,1,0,1.616,1.616l3.847-3.847A1.142,1.142,0,0,0,182.321,112.269Z" transform="translate(-127.585 -91.621)"/>
          <path id="Path_232" data-name="Path 232" d="M249.037,12.04a1.143,1.143,0,0,0,1.327-.922l1.041-5.768,1.715,5.814.013.041a1.363,1.363,0,0,0,1.294.93h.007a1.363,1.363,0,0,0,1.291-.944l.012-.039,1.656-5.809L258.5,11.13a1.143,1.143,0,0,0,2.245-.429l-1.836-9.608a1.365,1.365,0,0,0-2.636-.149l-.012.039-1.848,6.483L252.5.972l-.013-.041a1.365,1.365,0,0,0-2.637.19l-1.731,9.591A1.142,1.142,0,0,0,249.037,12.04Z" transform="translate(-210.301 -0.001)"/>
          <path id="Path_233" data-name="Path 233" d="M181.673,4.256a1.143,1.143,0,0,0,1.341-.9,1.33,1.33,0,0,1,2.632.2l-.029.228a5.313,5.313,0,0,1-.838,1.649c-1.53,2.185-2.442,3.38-2.933,4.022-.615.806-.9,1.174-.7,1.8a1.187,1.187,0,0,0,.771.782,8.116,8.116,0,0,0,2.192.1c.737,0,1.738-.007,3.106-.024a1.143,1.143,0,0,0-.029-2.285c-.94.012-1.935.02-2.773.022.532-.713,1.263-1.713,2.239-3.108a7.387,7.387,0,0,0,1.2-2.494,3.746,3.746,0,0,0,.077-.632,3.615,3.615,0,0,0-7.161-.7,1.143,1.143,0,0,0,.9,1.341Z" transform="translate(-153.214 0)"/>
        </g>
      </g>
    </g>
  </g>
</svg>
