<svg id="black-star-silhouette" xmlns="http://www.w3.org/2000/svg" width="18.867" height="18" viewBox="0 0 18.867 18">
  <g id="Group_81" data-name="Group 81">
    <path id="Path_53" data-name="Path 53" d="M8.914,11.653a.58.58,0,0,1,1.04,0l2.262,4.582a1.46,1.46,0,0,0,1.1.8l5.057.735a.58.58,0,0,1,.321.989l-3.659,3.567a1.46,1.46,0,0,0-.42,1.292l.863,5.035a.58.58,0,0,1-.841.611l-4.523-2.377a1.46,1.46,0,0,0-1.359,0L4.232,29.263a.58.58,0,0,1-.841-.611l.864-5.035a1.46,1.46,0,0,0-.42-1.292L.175,18.758A.58.58,0,0,1,.5,17.769l5.057-.735a1.46,1.46,0,0,0,1.1-.8Z" transform="translate(0 -11.33)" fill="#ff9c00"/>
  </g>
</svg>
