<svg xmlns="http://www.w3.org/2000/svg" width="188.959" height="163.336" viewBox="0 0 188.959 163.336">
  <g id="Icon" transform="translate(-411 -1046)">
    <path id="Path_53" data-name="Path 53" d="M85,0c47,15,130,67,85,85s-49,87-85,75S-28,109,0,85,38-15,85,0Z" transform="translate(417.006 1047.943)" fill="#ffe8f2"/>
    <g id="Filled_outline" data-name="Filled outline" transform="translate(448 1071)">
      <path id="Path_170" data-name="Path 170" d="M80,128H95.6v7.8H80Z" transform="translate(-53.6 -93.8)" fill="#ffa700"/>
      <path id="Path_171" data-name="Path 171" d="M191.6,38.5h-5.2l-1.3-1.3H176V32h9.1A6.5,6.5,0,0,1,191.6,38.5Z" transform="translate(-134 -13.4)" fill="#ffa700"/>
      <path id="Path_172" data-name="Path 172" d="M112,72h5.2v9.1H112Z" transform="translate(-80.4 -46.9)" fill="#ffa700"/>
      <path id="Path_173" data-name="Path 173" d="M112,72h5.2v2.6H112Z" transform="translate(-80.4 -46.9)" fill="#78b9c1"/>
      <path id="Path_174" data-name="Path 174" d="M48.7,176H33.1A12.547,12.547,0,0,0,24,188.064V222.8a3.9,3.9,0,0,0,3.9,3.9h26a3.9,3.9,0,0,0,3.9-3.9V188.064A12.547,12.547,0,0,0,48.7,176Z" transform="translate(-6.7 -134)" fill="#ffd0c7"/>
      <path id="Path_175" data-name="Path 175" d="M80,24H95.6v7.8H80Z" transform="translate(-53.6 -6.7)" fill="#ffa700"/>
      <path id="Path_176" data-name="Path 176" d="M239.8,119.58v.22a3.9,3.9,0,0,1-7.8,0v-.22a3.9,3.9,0,0,1,.556-2.007L235.9,112l3.344,5.574a3.9,3.9,0,0,1,.556,2.007Z" transform="translate(-180.9 -80.4)" fill="#fe0470"/>
      <path id="Path_177" data-name="Path 177" d="M112,176h5.2v13H112Z" transform="translate(-80.4 -134)" fill="#ffa700"/>
      <path id="Path_178" data-name="Path 178" d="M24,256H57.8v29.9H24Z" transform="translate(-6.7 -201)" fill="#fe0470"/>
      <path id="Path_179" data-name="Path 179" d="M81.606,283.354l14.329,13.77a7.8,7.8,0,0,0,5.4,2.176H146.3V278.5l-3.482-2.487a21.547,21.547,0,0,0-19.336-2.907L119,274.6H105.35a4.55,4.55,0,0,0,0,9.1h11.127A2.523,2.523,0,0,1,119,286.222v.081a2.6,2.6,0,0,1-2.6,2.6H102.1L88.474,275.929a5.057,5.057,0,0,0-6.868,7.425Z" transform="translate(-53.6 -214.4)" fill="#fdc8a2"/>
      <path id="Path_180" data-name="Path 180" d="M21.2,94h26a5.206,5.206,0,0,0,5.2-5.2H49.8a2.6,2.6,0,0,1-2.6,2.6h-26a2.6,2.6,0,0,1-2.6-2.6V86.2H38.1V83.6H18.6V56.3H52.4V54.064a13.91,13.91,0,0,0-9.1-13V34.2A1.3,1.3,0,0,0,42,32.9H38.1V26.4H42a1.3,1.3,0,0,0,1.3-1.3h7.262l.919.919a1.3,1.3,0,0,0,.919.381h5.2a1.3,1.3,0,0,0,1.3-1.3,7.809,7.809,0,0,0-7.8-7.8H43.3A1.3,1.3,0,0,0,42,16H26.4a1.3,1.3,0,0,0-1.3,1.3v7.8a1.3,1.3,0,0,0,1.3,1.3h3.9v6.5H26.4a1.3,1.3,0,0,0-1.3,1.3v6.858a13.9,13.9,0,0,0-4.8,2.971L22.1,45.913A11.29,11.29,0,0,1,26.587,43.3H30.3V53.7H18.607a11.152,11.152,0,0,1,2.261-6.409l-2.076-1.566A13.741,13.741,0,0,0,16,54.064V88.8A5.206,5.206,0,0,0,21.2,94ZM43.3,19.9h7.8a5.209,5.209,0,0,1,5.035,3.9h-3.2l-.919-.919A1.3,1.3,0,0,0,51.1,22.5H43.3ZM35.5,53.7H32.9V43.3h2.6Zm14.293,0H38.1V43.3h3.713a11.3,11.3,0,0,1,7.98,10.4ZM27.7,23.8V18.6h13v5.2Zm7.8,2.6v6.5H32.9V26.4ZM27.7,40.7V35.5h13v5.2Zm-3.741,12L21.427,52.1a8.659,8.659,0,0,1,5.336-6.117l.929,2.428A6.061,6.061,0,0,0,23.958,52.7ZM55,30.3a1.3,1.3,0,0,0-1.115.631L50.541,36.5A5.366,5.366,0,0,0,55,44.6a5.206,5.206,0,0,0,5.2-5.2,5.514,5.514,0,0,0-.741-2.9l-3.344-5.574A1.3,1.3,0,0,0,55,30.3Zm2.613,8.88A2.691,2.691,0,0,1,55,42a2.762,2.762,0,0,1-2.232-4.157L55,34.127l2.229,3.716a2.7,2.7,0,0,1,.384,1.337ZM94,64.1V84.9a1.3,1.3,0,0,1-1.3,1.3H47.74a9.059,9.059,0,0,1-6.3-2.539L27.112,69.9a6.357,6.357,0,1,1,8.641-9.326l.018.016L49.02,73.2H62.8a1.3,1.3,0,0,0,1.3-1.3v-.079A1.225,1.225,0,0,0,62.876,70.6H51.75a5.85,5.85,0,0,1,0-11.7H65.188l4.283-1.428a22.844,22.844,0,0,1,18.1,1.585l-1.238,2.286a20.244,20.244,0,0,0-16.043-1.4l-4.483,1.5a1.3,1.3,0,0,1-.41.066H51.75a3.25,3.25,0,0,0,0,6.5H62.876A3.828,3.828,0,0,1,66.7,71.822V71.9a3.9,3.9,0,0,1-3.9,3.9H48.5a1.3,1.3,0,0,1-.9-.358L33.986,62.48A3.757,3.757,0,1,0,28.892,68l.014.013,14.329,13.77a6.471,6.471,0,0,0,4.5,1.813H91.4V64.769l-2.938-2.1,1.511-2.116,3.482,2.488A1.3,1.3,0,0,1,94,64.1Z" transform="translate(0)"/>
    </g>
  </g>
</svg>
