<svg xmlns="http://www.w3.org/2000/svg" width="188.959" height="163.336" viewBox="0 0 188.959 163.336">
  <g id="Icon" transform="translate(-411 -1046)">
    <path id="Path_53" data-name="Path 53" d="M85,0c47,15,130,67,85,85s-49,87-85,75S-28,109,0,85,38-15,85,0Z" transform="translate(417.006 1047.943)" fill="#ffe8f2"/>
    <g id="Filled_outline" data-name="Filled outline" transform="translate(435 1070)">
      <path id="Path_163" data-name="Path 163" d="M214.6,102l-.792-.634a60.264,60.264,0,0,0-13.491-8.152l-12.335-4.892a3.835,3.835,0,0,0-3.736,6.655L195,102H165.6a4.2,4.2,0,1,0,0,8.4h-1.4a4.2,4.2,0,0,0,0,8.4H167a4.2,4.2,0,0,0,0,8.4h4.2a4.2,4.2,0,1,0,0,8.4h25.608c6.176,0,12.268-2.838,17.792-5.6h4.2V102Z" transform="translate(-118.8 -59.4)" fill="#fdb683"/>
      <ellipse id="Ellipse_23" data-name="Ellipse 23" cx="3" cy="2.5" rx="3" ry="2.5" transform="translate(51 32)" fill="#4db6e4"/>
      <path id="Path_164" data-name="Path 164" d="M80.261,171.2,66.547,104h-11.2L41.633,171.2Z" transform="translate(-21.147 -72.6)" fill="#fe0470"/>
      <path id="Path_165" data-name="Path 165" d="M31.4,24H16v9.8H30A4.2,4.2,0,0,1,34.2,38H45.4a14,14,0,0,0-14-14Z" transform="translate(0 -6.6)" fill="#ffd0c7"/>
      <path id="Path_166" data-name="Path 166" d="M150.6,236.6l-.792-.634a60.258,60.258,0,0,0-13.491-8.152l-9.517-3.492a3.835,3.835,0,0,0-3.736,6.655L131,236.6H101.6a4.2,4.2,0,1,0,0,8.4h-1.4a4.2,4.2,0,1,0,0,8.4H103a4.2,4.2,0,0,0,0,8.4h4.2a4.2,4.2,0,1,0,0,8.4h25.608c6.176,0,13.668-2.838,19.192-5.6h14v-28Z" transform="translate(-66 -171.6)" fill="#fdc8a2"/>
      <path id="Path_167" data-name="Path 167" d="M0,0H18.929V2.8H0Z" transform="translate(35.756 57.04) rotate(-86.846)" fill="#3ba5d3"/>
      <path id="Path_168" data-name="Path 168" d="M0,0H2.8V15.274H0Z" transform="translate(41.379 45.7) rotate(-4.588)" fill="#3ba5d3"/>
      <circle id="Ellipse_24" data-name="Ellipse 24" cx="3" cy="3" r="3" transform="translate(19 69)" fill="#4db6e4"/>
      <ellipse id="Ellipse_25" data-name="Ellipse 25" cx="3" cy="2.5" rx="3" ry="2.5" transform="translate(65 79)" fill="#4db6e4"/>
      <path id="Path_169" data-name="Path 169" d="M96.29,41.2H100V44H95.8a1.4,1.4,0,0,1-.874-.306l-.793-.633a58.862,58.862,0,0,0-13.156-7.955L68.666,30.223l-.044-.018a2.435,2.435,0,0,0-2.39,4.214l10.733,7.009a1.4,1.4,0,0,1,.606.895,17.963,17.963,0,0,0,2.96,6.347c2.935,3.934,7.083,5.661,12.328,5.137l.279,2.786a20.273,20.273,0,0,1-2.06.105,15.367,15.367,0,0,1-12.856-6.443A20.947,20.947,0,0,1,75.121,44h-23.6V41.2H71.5l-6.815-4.451-.038-.025a5.235,5.235,0,0,1,5.076-9.1l12.313,4.882.045.019a61.652,61.652,0,0,1,13.8,8.343ZM44.263,32.8l5.893,28.286,2.741-.571L46.8,31.246A15.418,15.418,0,0,0,31.4,16H16v2.8H31.4A12.619,12.619,0,0,1,43.923,30h-8.5A5.61,5.61,0,0,0,30,25.8H16v2.8H30a2.8,2.8,0,0,1,2.794,2.689L25.827,66.125l2.746.549L35.348,32.8Zm40.42,30.473a61.688,61.688,0,0,0-13.8-8.342l-.031-.013L64.7,52.4h3.1V49.6H54.208v2.8H55.39c-.089.1-.175.2-.257.314a5.235,5.235,0,0,0,1.161,7.412L60.853,63.6H35.6a5.6,5.6,0,0,0-4.285,9.2A5.6,5.6,0,0,0,34.2,83.2H56.6V80.4H34.2a2.8,2.8,0,1,1,0-5.6H56.6V72h-21a2.8,2.8,0,1,1,0-5.6H65a1.4,1.4,0,0,0,.849-2.514l-7.878-6-.046-.033A2.435,2.435,0,0,1,60.3,53.625l.031.013L69.771,57.5A58.89,58.89,0,0,1,82.933,65.46c.5.4.985.94,1.667.94H100V63.6H85.091Zm.692,28.475C82.1,93.387,73.723,97.2,66.808,97.2H41.2a2.8,2.8,0,0,1,0-5.6H56.6V88.8H37A2.8,2.8,0,0,1,34.2,86H31.4a5.608,5.608,0,0,0,4.972,5.565A5.6,5.6,0,0,0,41.2,100H66.808c3.077,0,9.683-.732,19.521-5.6H100V91.6H86a1.4,1.4,0,0,0-.626.148ZM38.573,57.2l1.05-18.9-2.8-.155-1.05,18.9Zm2.807-11.515L42.6,60.913l2.791-.225L44.171,45.463ZM25.8,72a4.2,4.2,0,1,1-4.2-4.2A4.2,4.2,0,0,1,25.8,72ZM23,72a1.4,1.4,0,1,0-1.4,1.4A1.4,1.4,0,0,0,23,72ZM53.8,38.4A4.2,4.2,0,1,1,58,34.2a4.2,4.2,0,0,1-4.2,4.2Zm0-2.8a1.4,1.4,0,1,0-1.4-1.4A1.4,1.4,0,0,0,53.8,35.6ZM67.8,86A4.2,4.2,0,1,1,72,81.8,4.2,4.2,0,0,1,67.8,86Zm0-2.8a1.4,1.4,0,1,0-1.4-1.4A1.4,1.4,0,0,0,67.8,83.2Z" transform="translate(0)"/>
    </g>
  </g>
</svg>
