<svg xmlns="http://www.w3.org/2000/svg" width="188.959" height="163.336" viewBox="0 0 188.959 163.336">
  <g id="Icon" transform="translate(-411 -1046)">
    <path id="Path_53" data-name="Path 53" d="M85,0c47,15,130,67,85,85s-49,87-85,75S-28,109,0,85,38-15,85,0Z" transform="translate(417.006 1047.943)" fill="#ffe8f2"/>
    <g id="face-mask" transform="translate(375.903 1079)">
      <g id="Group_21" data-name="Group 21" transform="translate(93.533 1.469)">
        <g id="Group_20" data-name="Group 20" transform="translate(0)">
          <path id="Path_143" data-name="Path 143" d="M109.693,37.643a31.063,31.063,0,0,1-5.207-17.515,13.351,13.351,0,0,0,5.7,0c5.241-1.413,10.4-11.81,19.482-12.113s10.847,3.937,10.847,3.937a13.806,13.806,0,0,1,8.333-1.312c7.47,1.009,14.031,12.389,7.362,28.022" transform="translate(-103.645 -8)" fill="#ffa700"/>
          <path id="Path_144" data-name="Path 144" d="M194.4,88c-3.243-2.992-6.853-8.167-8.3-10.329a.919.919,0,0,0-1.443-.1c-7.316,7.99-16.791,10.653-21.032,11.481a2.751,2.751,0,0,0-2.222,2.7v8.553a17.368,17.368,0,0,0,34.736,0V92.014A5.455,5.455,0,0,0,194.4,88Z" transform="translate(-150.115 -64.55)" fill="#ffd0c7"/>
          <path id="Path_145" data-name="Path 145" d="M178.772,202.118A17.368,17.368,0,0,1,161.4,184.75v3.3a17.368,17.368,0,1,0,34.736,0v-3.3A17.368,17.368,0,0,1,178.772,202.118Z" transform="translate(-150.115 -152.298)" fill="#f7c4a8"/>
          <path id="Path_146" data-name="Path 146" d="M125.782,172.511v-6.134a5.41,5.41,0,1,0,.291,9.311A17.473,17.473,0,0,1,125.782,172.511Z" transform="translate(-114.493 -136.755)" fill="#ffd0c7"/>
          <path id="Path_147" data-name="Path 147" d="M349.3,172.511v-6.134a5.41,5.41,0,1,1-.291,9.311A17.455,17.455,0,0,0,349.3,172.511Z" transform="translate(-303.277 -136.755)" fill="#ffd0c7"/>
          <path id="Path_148" data-name="Path 148" d="M123.18,189.927a5.411,5.411,0,0,1-5.151-3.756,5.408,5.408,0,0,0,8.044,6.221,17.472,17.472,0,0,1-.29-3.134A5.377,5.377,0,0,1,123.18,189.927Z" transform="translate(-114.493 -153.459)" fill="#e8a990"/>
          <path id="Path_149" data-name="Path 149" d="M351.9,189.928a5.377,5.377,0,0,1-2.6-.669,17.455,17.455,0,0,1-.29,3.134,5.409,5.409,0,0,0,8.044-6.221A5.41,5.41,0,0,1,351.9,189.928Z" transform="translate(-303.277 -153.459)" fill="#e8a990"/>
          <path id="Path_150" data-name="Path 150" d="M136.71,286.343a17.387,17.387,0,0,1-16.268,0,25.853,25.853,0,0,0-20.522,25.295V326.3h57.313V311.638A25.853,25.853,0,0,0,136.71,286.343Z" transform="translate(-99.919 -235.239)" fill="#fe0470"/>
          <path id="Path_151" data-name="Path 151" d="M99.919,486h57.313v3.3H99.919Z" transform="translate(-99.919 -398.239)" fill="#e84642"/>
          <path id="Path_152" data-name="Path 152" d="M219.465,288.236a17.29,17.29,0,0,1-8.189-2.049c-.017.214-.028.429-.028.646a8.216,8.216,0,1,0,16.433,0c0-.218-.011-.433-.028-.646A17.288,17.288,0,0,1,219.465,288.236Z" transform="translate(-190.808 -235.112)" fill="#ffd0c7"/>
          <path id="Path_153" data-name="Path 153" d="M340.362,458.367H353.53v8.378H340.362Z" transform="translate(-296.216 -375.679)" fill="#ffd0c7"/>
          <path id="Path_154" data-name="Path 154" d="M0,0H13.168V8.378H0Z" transform="translate(13.168 91.066) rotate(180)" fill="#ffd0c7"/>
          <path id="Path_155" data-name="Path 155" d="M340.362,486H353.53v3.3H340.362Z" transform="translate(-296.216 -398.239)" fill="#ffa700"/>
          <path id="Path_156" data-name="Path 156" d="M99.919,486h13.168v3.3H99.919Z" transform="translate(-99.919 -398.239)" fill="#ffa700"/>
          <path id="Path_157" data-name="Path 157" d="M203.821,212.141c-1.719-1.962-7.849-8.318-15.139-8.318s-13.42,6.356-15.139,8.318a17.372,17.372,0,0,0,30.279,0Z" transform="translate(-160.025 -167.87)" fill="#ffa700"/>
          <path id="Path_158" data-name="Path 158" d="M188.681,248.632a17.34,17.34,0,0,1-13.865-6.907c-.545.547-.977,1.02-1.275,1.36a17.372,17.372,0,0,0,30.279,0c-.3-.339-.73-.813-1.275-1.36A17.341,17.341,0,0,1,188.681,248.632Z" transform="translate(-160.025 -198.813)" fill="#ff74c4"/>
        </g>
      </g>
      <g id="Group_22" data-name="Group 22" transform="translate(92.097 0)">
        <path id="Path_159" data-name="Path 159" d="M206.842,170.95a1.38,1.38,0,0,0,1.38-1.38v-2.461a1.38,1.38,0,1,0-2.76,0v2.461A1.38,1.38,0,0,0,206.842,170.95Z" transform="translate(-184.648 -135.301)"/>
        <path id="Path_160" data-name="Path 160" d="M292.888,170.95a1.38,1.38,0,0,0,1.38-1.38v-2.461a1.38,1.38,0,1,0-2.76,0v2.461A1.38,1.38,0,0,0,292.888,170.95Z" transform="translate(-254.896 -135.301)"/>
        <path id="Path_161" data-name="Path 161" d="M264.347,335.922a1.38,1.38,0,0,0-2.249,1.6,24.347,24.347,0,0,1,4.515,14.18v4.922H256.179v-6.509a1.38,1.38,0,0,0-2.76,0v14.9H236.9a1.38,1.38,0,1,0,0,2.759h31.093a1.38,1.38,0,0,0,1.38-1.38V351.7A27.091,27.091,0,0,0,264.347,335.922Zm2.266,29.095H256.179v-5.635h10.434Z" transform="translate(-209.187 -273.773)"/>
        <path id="Path_162" data-name="Path 162" d="M114.291,91.245h-6.24v-14.9a1.38,1.38,0,1,0-2.76,0V82.85H94.857V77.928a24.523,24.523,0,0,1,17.791-23.579,9.61,9.61,0,0,0,19.083,0,24.5,24.5,0,0,1,9.811,5.48,1.38,1.38,0,1,0,1.862-2.037,27.261,27.261,0,0,0-9.738-5.728,18.839,18.839,0,0,0,6.6-9.735,6.794,6.794,0,0,0,7.475-10.455c3.406-8.454,3.422-16.679.017-22.671-2.094-3.687-5.3-6.072-8.8-6.544a15.977,15.977,0,0,0-8.06.938,8.077,8.077,0,0,0-1.743-1.5c-2.337-1.515-5.581-2.216-9.644-2.08-3.367.112-6.531,1.439-9.957,4.176a1.38,1.38,0,0,0,1.722,2.156C114.212,4,116.858,2.866,119.6,2.775c7.609-.251,9.43,2.879,9.554,3.111a1.344,1.344,0,0,0,1.973.64,12.439,12.439,0,0,1,7.459-1.134c2.636.356,5.1,2.242,6.768,5.173,1.383,2.435,4.04,9.033.19,19.331a6.758,6.758,0,0,0-4.573-.77V28.9a6.86,6.86,0,0,0-2.184-5.036c-3.152-2.908-6.721-8.034-8.109-10.1a2.313,2.313,0,0,0-3.609-.265c-7.157,7.816-16.594,10.353-20.32,11.081a4.144,4.144,0,0,0-3.341,4.061v.49a6.749,6.749,0,0,0-3.354.229,30.584,30.584,0,0,1-4.332-14.208,13.291,13.291,0,0,0,4.671-.282c2.415-.651,4.68-2.812,6.871-4.9a1.38,1.38,0,0,0-1.9-2c-1.941,1.851-3.948,3.765-5.685,4.234a12.053,12.053,0,0,1-5.036-.01,1.389,1.389,0,0,0-1.7,1.322,32.8,32.8,0,0,0,4.718,17.228,6.8,6.8,0,0,0,6.459,11.588,18.84,18.84,0,0,0,6.595,9.734A27.28,27.28,0,0,0,92.1,77.929v14.7A1.38,1.38,0,0,0,93.477,94H114.29a1.38,1.38,0,0,0,0-2.76Zm19.93-50.373,3.991-5.537v1.872a15.937,15.937,0,0,1-1.22,6.131A32.921,32.921,0,0,0,134.221,40.872Zm7.978-9.1a4.04,4.04,0,1,1-1.38,7.836,18.893,18.893,0,0,0,.153-2.4V31.964A4.057,4.057,0,0,1,142.2,31.772Zm-34.92-4.489c3.926-.767,13.776-3.413,21.434-11.5a65.787,65.787,0,0,0,8.2,10.112,4.094,4.094,0,0,1,1.3,3.008v1.716l-6.231,8.646a18.307,18.307,0,0,0-9.791-3.237,18.308,18.308,0,0,0-9.791,3.237l-6.231-8.646V28.636a1.379,1.379,0,0,1,1.111-1.353Zm.109,16.054a15.933,15.933,0,0,1-1.22-6.131V35.335l3.991,5.537A32.953,32.953,0,0,0,107.388,43.337Zm-5.207-3.485a4.04,4.04,0,1,1,1.227-7.888v5.243a18.859,18.859,0,0,0,.153,2.4A4.029,4.029,0,0,1,102.181,39.852Zm6.558,6.05A29.237,29.237,0,0,1,113.3,41.97a15.825,15.825,0,0,1,8.894-3.186c5.984,0,11.231,4.77,13.451,7.118a16.011,16.011,0,0,1-26.9,0ZM122.19,55.988a18.687,18.687,0,0,0,6.672-1.226,6.851,6.851,0,0,1-13.343,0A18.687,18.687,0,0,0,122.19,55.988Zm-16.9,35.257H94.857V85.609h10.434Z" transform="translate(-92.097 0)"/>
      </g>
    </g>
  </g>
</svg>
